<svg width="299.506653" height="60.000000" viewBox="0 0 299.507 60" fill="none" xmlns="http://www.w3.org/2000/svg" xmlns:xlink="http://www.w3.org/1999/xlink">
	<desc>
			Created with Pixso.
	</desc>
	<defs>
		<clipPath id="clip2_332">
			<rect rx="-0.500000" width="298.506653" height="59.000000" transform="translate(0.500000 0.500000)" fill="white" fill-opacity="0"/>
		</clipPath>
	</defs>
	<rect rx="-0.500000" width="298.506653" height="59.000000" transform="translate(0.500000 0.500000)" fill="#FFFFFF" fill-opacity="0"/>
	<g clip-path="url(#clip2_332)">
		<path d="M18.08 25.21L29.74 13.56L41.39 25.21L48.17 18.43L29.74 0L11.3 18.43L18.08 25.21Z" fill="#FFFFFF" fill-opacity="0.500000" fill-rule="nonzero"/>
		<path d="M6.52 23.21L13.3 29.99L6.52 36.77L-0.26 29.99L6.52 23.21Z" fill="#FFFFFF" fill-opacity="0.500000" fill-rule="evenodd"/>
		<path d="M18.08 34.78L29.74 46.43L41.39 34.78L48.18 41.55L48.17 41.56L29.74 60L11.3 41.56L11.29 41.55L18.08 34.78Z" fill="#FFFFFF" fill-opacity="0.500000" fill-rule="nonzero"/>
		<path d="M59.74 30L52.96 36.78L46.18 30L52.96 23.22L59.74 30Z" fill="#FFFFFF" fill-opacity="0.500000" fill-rule="evenodd"/>
		<path d="M36.61 29.99L36.62 29.99L29.74 23.11L24.65 28.2L24.65 28.2L24.07 28.78L22.86 29.99L22.85 29.99L22.86 30L29.74 36.88L36.62 30L36.62 29.99L36.61 29.99Z" fill="#FFFFFF" fill-opacity="0.500000" fill-rule="nonzero"/>
		<path d="M70.31 14.53L85.05 14.53C88.71 14.53 91.48 15.47 93.36 17.35C94.81 18.81 95.53 20.61 95.53 22.76L95.53 22.85C95.53 23.76 95.42 24.56 95.19 25.26C94.97 25.96 94.67 26.59 94.29 27.15C93.91 27.71 93.48 28.2 92.98 28.62C92.48 29.05 91.95 29.41 91.38 29.71C93.22 30.41 94.67 31.36 95.72 32.56C96.78 33.75 97.31 35.41 97.31 37.53L97.31 37.62C97.31 39.08 97.03 40.35 96.47 41.44C95.91 42.53 95.1 43.44 94.06 44.17C93.02 44.9 91.76 45.44 90.29 45.81C88.83 46.17 87.2 46.35 85.42 46.35L70.31 46.35L70.31 14.53ZM83.58 27.4C85.12 27.4 86.35 27.13 87.26 26.6C88.17 26.07 88.62 25.21 88.62 24.03L88.62 23.94C88.62 22.88 88.23 22.07 87.44 21.51C86.65 20.95 85.52 20.67 84.03 20.67L77.12 20.67L77.12 27.4L83.58 27.4ZM85.44 40.21C86.99 40.21 88.2 39.94 89.08 39.37C89.96 38.81 90.4 37.94 90.4 36.76L90.4 36.67C90.4 35.61 89.99 34.77 89.17 34.15C88.35 33.53 87.03 33.22 85.21 33.22L77.12 33.22L77.12 40.22L85.44 40.22L85.44 40.21Z" fill="#FFFFFF" fill-opacity="0.500000" fill-rule="nonzero"/>
		<path d="M106.09 14.53L113.09 14.53L113.09 46.35L106.09 46.35L106.09 14.53Z" fill="#FFFFFF" fill-opacity="0.500000" fill-rule="nonzero"/>
		<path d="M123.69 14.53L130.14 14.53L145.05 34.12L145.05 14.53L151.96 14.53L151.96 46.35L146.01 46.35L130.6 26.12L130.6 46.35L123.69 46.35L123.69 14.53Z" fill="#FFFFFF" fill-opacity="0.500000" fill-rule="nonzero"/>
		<path d="M173.15 14.31L179.61 14.31L193.25 46.35L185.93 46.35L183.02 39.22L169.56 39.22L166.65 46.35L159.52 46.35L173.15 14.31ZM180.52 33.03L176.29 22.72L172.06 33.03L180.52 33.03Z" fill="#FFFFFF" fill-opacity="0.500000" fill-rule="nonzero"/>
		<path d="M200.8 14.53L207.26 14.53L222.16 34.12L222.16 14.53L229.07 14.53L229.07 46.35L223.12 46.35L207.71 26.12L207.71 46.35L200.8 46.35L200.8 14.53Z" fill="#FFFFFF" fill-opacity="0.500000" fill-rule="nonzero"/>
		<path d="M254.27 46.9C251.93 46.9 249.77 46.47 247.77 45.62C245.77 44.78 244.04 43.62 242.58 42.15C241.13 40.68 239.99 38.94 239.18 36.94C238.36 34.94 237.95 32.81 237.95 30.53L237.95 30.44C237.95 28.17 238.36 26.04 239.18 24.06C239.99 22.07 241.13 20.33 242.58 18.83C244.04 17.33 245.78 16.15 247.81 15.28C249.84 14.42 252.08 13.99 254.54 13.99C256.02 13.99 257.38 14.11 258.6 14.35C259.83 14.59 260.95 14.93 261.95 15.35C262.95 15.78 263.87 16.29 264.72 16.9C265.57 17.5 266.35 18.17 267.08 18.9L262.63 24.03C261.39 22.91 260.12 22.03 258.83 21.4C257.54 20.76 256.1 20.44 254.49 20.44C253.16 20.44 251.92 20.7 250.79 21.22C249.65 21.73 248.67 22.44 247.86 23.35C247.04 24.26 246.4 25.31 245.95 26.51C245.49 27.71 245.27 28.99 245.27 30.35L245.27 30.44C245.27 31.81 245.49 33.09 245.95 34.3C246.4 35.52 247.03 36.58 247.83 37.49C248.64 38.4 249.61 39.12 250.74 39.65C251.88 40.18 253.13 40.44 254.49 40.44C256.31 40.44 257.85 40.11 259.1 39.44C260.36 38.78 261.61 37.87 262.85 36.71L267.31 41.21C266.49 42.09 265.64 42.88 264.76 43.58C263.89 44.28 262.92 44.87 261.88 45.37C260.83 45.87 259.69 46.25 258.45 46.51C257.2 46.77 255.81 46.9 254.27 46.9Z" fill="#FFFFFF" fill-opacity="0.500000" fill-rule="nonzero"/>
		<path d="M275.55 14.53L299.5 14.53L299.5 20.76L282.46 20.76L282.46 27.22L297.46 27.22L297.46 33.44L282.46 33.44L282.46 40.12L299.73 40.12L299.73 46.35L275.55 46.35L275.55 14.53Z" fill="#FFFFFF" fill-opacity="0.500000" fill-rule="nonzero"/>
	</g>
</svg>
