<?xml version="1.0" encoding="UTF-8"?>
<svg xmlns="http://www.w3.org/2000/svg" xmlns:xlink="http://www.w3.org/1999/xlink" width="200px" height="40px" viewBox="0 0 200 40" version="1.1">
<defs>
<clipPath id="clip1">
  <path d="M 7 0 L 33 0 L 33 17 L 7 17 Z M 7 0 "/>
</clipPath>
<clipPath id="clip2">
  <path d="M 0.667969 0.332031 L 199.003906 0.332031 C 199.1875 0.332031 199.335938 0.484375 199.335938 0.667969 L 199.335938 39.332031 C 199.335938 39.515625 199.1875 39.667969 199.003906 39.667969 L 0.667969 39.667969 C 0.484375 39.667969 0.332031 39.515625 0.332031 39.332031 L 0.332031 0.667969 C 0.332031 0.484375 0.484375 0.332031 0.667969 0.332031 Z M 0.667969 0.332031 "/>
</clipPath>
<clipPath id="clip3">
  <path d="M 0 15 L 9 15 L 9 25 L 0 25 Z M 0 15 "/>
</clipPath>
<clipPath id="clip4">
  <path d="M 0.667969 0.332031 L 199.003906 0.332031 C 199.1875 0.332031 199.335938 0.484375 199.335938 0.667969 L 199.335938 39.332031 C 199.335938 39.515625 199.1875 39.667969 199.003906 39.667969 L 0.667969 39.667969 C 0.484375 39.667969 0.332031 39.515625 0.332031 39.332031 L 0.332031 0.667969 C 0.332031 0.484375 0.484375 0.332031 0.667969 0.332031 Z M 0.667969 0.332031 "/>
</clipPath>
<clipPath id="clip5">
  <path d="M 7 23 L 33 23 L 33 40 L 7 40 Z M 7 23 "/>
</clipPath>
<clipPath id="clip6">
  <path d="M 0.667969 0.332031 L 199.003906 0.332031 C 199.1875 0.332031 199.335938 0.484375 199.335938 0.667969 L 199.335938 39.332031 C 199.335938 39.515625 199.1875 39.667969 199.003906 39.667969 L 0.667969 39.667969 C 0.484375 39.667969 0.332031 39.515625 0.332031 39.332031 L 0.332031 0.667969 C 0.332031 0.484375 0.484375 0.332031 0.667969 0.332031 Z M 0.667969 0.332031 "/>
</clipPath>
<clipPath id="clip7">
  <path d="M 30 15 L 40 15 L 40 25 L 30 25 Z M 30 15 "/>
</clipPath>
<clipPath id="clip8">
  <path d="M 0.667969 0.332031 L 199.003906 0.332031 C 199.1875 0.332031 199.335938 0.484375 199.335938 0.667969 L 199.335938 39.332031 C 199.335938 39.515625 199.1875 39.667969 199.003906 39.667969 L 0.667969 39.667969 C 0.484375 39.667969 0.332031 39.515625 0.332031 39.332031 L 0.332031 0.667969 C 0.332031 0.484375 0.484375 0.332031 0.667969 0.332031 Z M 0.667969 0.332031 "/>
</clipPath>
<clipPath id="clip9">
  <path d="M 15 15 L 25 15 L 25 25 L 15 25 Z M 15 15 "/>
</clipPath>
<clipPath id="clip10">
  <path d="M 0.667969 0.332031 L 199.003906 0.332031 C 199.1875 0.332031 199.335938 0.484375 199.335938 0.667969 L 199.335938 39.332031 C 199.335938 39.515625 199.1875 39.667969 199.003906 39.667969 L 0.667969 39.667969 C 0.484375 39.667969 0.332031 39.515625 0.332031 39.332031 L 0.332031 0.667969 C 0.332031 0.484375 0.484375 0.332031 0.667969 0.332031 Z M 0.667969 0.332031 "/>
</clipPath>
<clipPath id="clip11">
  <path d="M 46 9 L 65 9 L 65 31 L 46 31 Z M 46 9 "/>
</clipPath>
<clipPath id="clip12">
  <path d="M 0.667969 0.332031 L 199.003906 0.332031 C 199.1875 0.332031 199.335938 0.484375 199.335938 0.667969 L 199.335938 39.332031 C 199.335938 39.515625 199.1875 39.667969 199.003906 39.667969 L 0.667969 39.667969 C 0.484375 39.667969 0.332031 39.515625 0.332031 39.332031 L 0.332031 0.667969 C 0.332031 0.484375 0.484375 0.332031 0.667969 0.332031 Z M 0.667969 0.332031 "/>
</clipPath>
<clipPath id="clip13">
  <path d="M 70 9 L 76 9 L 76 31 L 70 31 Z M 70 9 "/>
</clipPath>
<clipPath id="clip14">
  <path d="M 0.667969 0.332031 L 199.003906 0.332031 C 199.1875 0.332031 199.335938 0.484375 199.335938 0.667969 L 199.335938 39.332031 C 199.335938 39.515625 199.1875 39.667969 199.003906 39.667969 L 0.667969 39.667969 C 0.484375 39.667969 0.332031 39.515625 0.332031 39.332031 L 0.332031 0.667969 C 0.332031 0.484375 0.484375 0.332031 0.667969 0.332031 Z M 0.667969 0.332031 "/>
</clipPath>
<clipPath id="clip15">
  <path d="M 82 9 L 102 9 L 102 31 L 82 31 Z M 82 9 "/>
</clipPath>
<clipPath id="clip16">
  <path d="M 0.667969 0.332031 L 199.003906 0.332031 C 199.1875 0.332031 199.335938 0.484375 199.335938 0.667969 L 199.335938 39.332031 C 199.335938 39.515625 199.1875 39.667969 199.003906 39.667969 L 0.667969 39.667969 C 0.484375 39.667969 0.332031 39.515625 0.332031 39.332031 L 0.332031 0.667969 C 0.332031 0.484375 0.484375 0.332031 0.667969 0.332031 Z M 0.667969 0.332031 "/>
</clipPath>
<clipPath id="clip17">
  <path d="M 106 9 L 129 9 L 129 31 L 106 31 Z M 106 9 "/>
</clipPath>
<clipPath id="clip18">
  <path d="M 0.667969 0.332031 L 199.003906 0.332031 C 199.1875 0.332031 199.335938 0.484375 199.335938 0.667969 L 199.335938 39.332031 C 199.335938 39.515625 199.1875 39.667969 199.003906 39.667969 L 0.667969 39.667969 C 0.484375 39.667969 0.332031 39.515625 0.332031 39.332031 L 0.332031 0.667969 C 0.332031 0.484375 0.484375 0.332031 0.667969 0.332031 Z M 0.667969 0.332031 "/>
</clipPath>
<clipPath id="clip19">
  <path d="M 133 9 L 153 9 L 153 31 L 133 31 Z M 133 9 "/>
</clipPath>
<clipPath id="clip20">
  <path d="M 0.667969 0.332031 L 199.003906 0.332031 C 199.1875 0.332031 199.335938 0.484375 199.335938 0.667969 L 199.335938 39.332031 C 199.335938 39.515625 199.1875 39.667969 199.003906 39.667969 L 0.667969 39.667969 C 0.484375 39.667969 0.332031 39.515625 0.332031 39.332031 L 0.332031 0.667969 C 0.332031 0.484375 0.484375 0.332031 0.667969 0.332031 Z M 0.667969 0.332031 "/>
</clipPath>
<clipPath id="clip21">
  <path d="M 158 9 L 179 9 L 179 32 L 158 32 Z M 158 9 "/>
</clipPath>
<clipPath id="clip22">
  <path d="M 0.667969 0.332031 L 199.003906 0.332031 C 199.1875 0.332031 199.335938 0.484375 199.335938 0.667969 L 199.335938 39.332031 C 199.335938 39.515625 199.1875 39.667969 199.003906 39.667969 L 0.667969 39.667969 C 0.484375 39.667969 0.332031 39.515625 0.332031 39.332031 L 0.332031 0.667969 C 0.332031 0.484375 0.484375 0.332031 0.667969 0.332031 Z M 0.667969 0.332031 "/>
</clipPath>
<clipPath id="clip23">
  <path d="M 183 9 L 200 9 L 200 31 L 183 31 Z M 183 9 "/>
</clipPath>
<clipPath id="clip24">
  <path d="M 0.667969 0.332031 L 199.003906 0.332031 C 199.1875 0.332031 199.335938 0.484375 199.335938 0.667969 L 199.335938 39.332031 C 199.335938 39.515625 199.1875 39.667969 199.003906 39.667969 L 0.667969 39.667969 C 0.484375 39.667969 0.332031 39.515625 0.332031 39.332031 L 0.332031 0.667969 C 0.332031 0.484375 0.484375 0.332031 0.667969 0.332031 Z M 0.667969 0.332031 "/>
</clipPath>
</defs>
<g id="surface1">
<g clip-path="url(#clip1)" clip-rule="nonzero">
<g clip-path="url(#clip2)" clip-rule="nonzero">
<path style=" stroke:none;fill-rule:nonzero;fill:rgb(100%,100%,100%);fill-opacity:0.501961;" d="M 12.054688 16.808594 L 19.828125 9.039062 L 27.59375 16.808594 L 32.113281 12.285156 L 19.828125 0 L 7.535156 12.285156 Z M 12.054688 16.808594 "/>
</g>
</g>
<g clip-path="url(#clip3)" clip-rule="nonzero">
<g clip-path="url(#clip4)" clip-rule="nonzero">
<path style=" stroke:none;fill-rule:evenodd;fill:rgb(100%,100%,100%);fill-opacity:0.501961;" d="M 4.347656 15.472656 L 8.867188 19.992188 L 4.347656 24.511719 L -0.171875 19.992188 Z M 4.347656 15.472656 "/>
</g>
</g>
<g clip-path="url(#clip5)" clip-rule="nonzero">
<g clip-path="url(#clip6)" clip-rule="nonzero">
<path style=" stroke:none;fill-rule:nonzero;fill:rgb(100%,100%,100%);fill-opacity:0.501961;" d="M 12.054688 23.1875 L 19.828125 30.953125 L 27.59375 23.1875 L 32.121094 27.699219 L 32.113281 27.707031 L 19.828125 40 L 7.527344 27.699219 Z M 12.054688 23.1875 "/>
</g>
</g>
<g clip-path="url(#clip7)" clip-rule="nonzero">
<g clip-path="url(#clip8)" clip-rule="nonzero">
<path style=" stroke:none;fill-rule:evenodd;fill:rgb(100%,100%,100%);fill-opacity:0.501961;" d="M 39.828125 20 L 35.304688 24.519531 L 30.785156 20 L 35.304688 15.480469 Z M 39.828125 20 "/>
</g>
</g>
<g clip-path="url(#clip9)" clip-rule="nonzero">
<g clip-path="url(#clip10)" clip-rule="nonzero">
<path style=" stroke:none;fill-rule:nonzero;fill:rgb(100%,100%,100%);fill-opacity:0.501961;" d="M 24.40625 19.992188 L 24.414062 19.992188 L 19.828125 15.40625 L 16.046875 19.1875 L 15.238281 19.992188 L 15.234375 19.992188 L 15.238281 20 L 19.828125 24.585938 L 24.414062 20 L 24.414062 19.992188 Z M 24.40625 19.992188 "/>
</g>
</g>
<g clip-path="url(#clip11)" clip-rule="nonzero">
<g clip-path="url(#clip12)" clip-rule="nonzero">
<path style=" stroke:none;fill-rule:nonzero;fill:rgb(100%,100%,100%);fill-opacity:0.501961;" d="M 46.875 9.6875 L 56.699219 9.6875 C 59.140625 9.6875 60.988281 10.3125 62.238281 11.566406 C 63.207031 12.539062 63.6875 13.738281 63.6875 15.171875 L 63.6875 15.234375 C 63.6875 15.839844 63.613281 16.375 63.460938 16.839844 C 63.3125 17.308594 63.113281 17.726562 62.859375 18.101562 C 62.605469 18.472656 62.320312 18.800781 61.988281 19.078125 C 61.652344 19.367188 61.300781 19.605469 60.921875 19.808594 C 62.148438 20.273438 63.113281 20.90625 63.8125 21.707031 C 64.519531 22.5 64.875 23.605469 64.875 25.019531 L 64.875 25.078125 C 64.875 26.054688 64.6875 26.898438 64.3125 27.625 C 63.941406 28.351562 63.398438 28.960938 62.707031 29.445312 C 62.011719 29.933594 61.171875 30.292969 60.191406 30.539062 C 59.21875 30.78125 58.132812 30.898438 56.945312 30.898438 L 46.875 30.898438 Z M 55.71875 18.265625 C 56.746094 18.265625 57.566406 18.085938 58.171875 17.734375 C 58.78125 17.378906 59.078125 16.808594 59.078125 16.019531 L 59.078125 15.960938 C 59.078125 15.253906 58.820312 14.714844 58.292969 14.339844 C 57.765625 13.964844 57.011719 13.78125 56.019531 13.78125 L 51.414062 13.78125 L 51.414062 18.265625 Z M 56.960938 26.808594 C 57.992188 26.808594 58.800781 26.625 59.386719 26.246094 C 59.972656 25.875 60.265625 25.292969 60.265625 24.507812 L 60.265625 24.445312 C 60.265625 23.738281 59.992188 23.179688 59.445312 22.765625 C 58.898438 22.351562 58.019531 22.148438 56.804688 22.148438 L 51.414062 22.148438 L 51.414062 26.8125 L 56.960938 26.8125 Z M 56.960938 26.808594 "/>
</g>
</g>
<g clip-path="url(#clip13)" clip-rule="nonzero">
<g clip-path="url(#clip14)" clip-rule="nonzero">
<path style=" stroke:none;fill-rule:nonzero;fill:rgb(100%,100%,100%);fill-opacity:0.501961;" d="M 70.726562 9.6875 L 75.394531 9.6875 L 75.394531 30.898438 L 70.726562 30.898438 Z M 70.726562 9.6875 "/>
</g>
</g>
<g clip-path="url(#clip15)" clip-rule="nonzero">
<g clip-path="url(#clip16)" clip-rule="nonzero">
<path style=" stroke:none;fill-rule:nonzero;fill:rgb(100%,100%,100%);fill-opacity:0.501961;" d="M 82.460938 9.6875 L 86.761719 9.6875 L 96.699219 22.746094 L 96.699219 9.6875 L 101.304688 9.6875 L 101.304688 30.898438 L 97.339844 30.898438 L 87.066406 17.414062 L 87.066406 30.898438 L 82.460938 30.898438 Z M 82.460938 9.6875 "/>
</g>
</g>
<g clip-path="url(#clip17)" clip-rule="nonzero">
<g clip-path="url(#clip18)" clip-rule="nonzero">
<path style=" stroke:none;fill-rule:nonzero;fill:rgb(100%,100%,100%);fill-opacity:0.501961;" d="M 115.433594 9.539062 L 119.738281 9.539062 L 128.832031 30.898438 L 123.953125 30.898438 L 122.011719 26.148438 L 113.039062 26.148438 L 111.101562 30.898438 L 106.347656 30.898438 Z M 120.347656 22.019531 L 117.527344 15.148438 L 114.707031 22.019531 Z M 120.347656 22.019531 "/>
</g>
</g>
<g clip-path="url(#clip19)" clip-rule="nonzero">
<g clip-path="url(#clip20)" clip-rule="nonzero">
<path style=" stroke:none;fill-rule:nonzero;fill:rgb(100%,100%,100%);fill-opacity:0.501961;" d="M 133.867188 9.6875 L 138.171875 9.6875 L 148.105469 22.746094 L 148.105469 9.6875 L 152.714844 9.6875 L 152.714844 30.898438 L 148.746094 30.898438 L 138.472656 17.414062 L 138.472656 30.898438 L 133.867188 30.898438 Z M 133.867188 9.6875 "/>
</g>
</g>
<g clip-path="url(#clip21)" clip-rule="nonzero">
<g clip-path="url(#clip22)" clip-rule="nonzero">
<path style=" stroke:none;fill-rule:nonzero;fill:rgb(100%,100%,100%);fill-opacity:0.501961;" d="M 169.511719 31.265625 C 167.953125 31.265625 166.511719 30.980469 165.179688 30.414062 C 163.847656 29.851562 162.691406 29.078125 161.71875 28.101562 C 160.753906 27.121094 159.992188 25.960938 159.453125 24.625 C 158.90625 23.292969 158.632812 21.875 158.632812 20.351562 L 158.632812 20.292969 C 158.632812 18.78125 158.90625 17.359375 159.453125 16.039062 C 159.992188 14.714844 160.753906 13.554688 161.71875 12.554688 C 162.691406 11.554688 163.851562 10.765625 165.207031 10.1875 C 166.558594 9.613281 168.054688 9.328125 169.691406 9.328125 C 170.679688 9.328125 171.585938 9.40625 172.398438 9.566406 C 173.21875 9.726562 173.964844 9.953125 174.632812 10.234375 C 175.300781 10.519531 175.914062 10.859375 176.480469 11.265625 C 177.046875 11.667969 177.566406 12.113281 178.054688 12.601562 L 175.085938 16.019531 C 174.261719 15.273438 173.414062 14.6875 172.554688 14.265625 C 171.691406 13.839844 170.734375 13.625 169.660156 13.625 C 168.773438 13.625 167.945312 13.800781 167.191406 14.148438 C 166.433594 14.488281 165.78125 14.960938 165.238281 15.566406 C 164.691406 16.171875 164.265625 16.875 163.964844 17.671875 C 163.660156 18.472656 163.511719 19.328125 163.511719 20.234375 L 163.511719 20.292969 C 163.511719 21.207031 163.660156 22.058594 163.964844 22.867188 C 164.265625 23.679688 164.6875 24.386719 165.21875 24.992188 C 165.761719 25.601562 166.40625 26.078125 167.160156 26.433594 C 167.917969 26.785156 168.753906 26.960938 169.660156 26.960938 C 170.875 26.960938 171.898438 26.738281 172.734375 26.292969 C 173.574219 25.851562 174.40625 25.246094 175.234375 24.472656 L 178.207031 27.472656 C 177.660156 28.058594 177.09375 28.585938 176.507812 29.054688 C 175.925781 29.519531 175.28125 29.914062 174.585938 30.246094 C 173.886719 30.578125 173.125 30.832031 172.300781 31.007812 C 171.464844 31.179688 170.539062 31.265625 169.511719 31.265625 Z M 169.511719 31.265625 "/>
</g>
</g>
<g clip-path="url(#clip23)" clip-rule="nonzero">
<g clip-path="url(#clip24)" clip-rule="nonzero">
<path style=" stroke:none;fill-rule:nonzero;fill:rgb(100%,100%,100%);fill-opacity:0.501961;" d="M 183.699219 9.6875 L 199.667969 9.6875 L 199.667969 13.839844 L 188.304688 13.839844 L 188.304688 18.148438 L 198.304688 18.148438 L 198.304688 22.292969 L 188.304688 22.292969 L 188.304688 26.746094 L 199.820312 26.746094 L 199.820312 30.898438 L 183.699219 30.898438 Z M 183.699219 9.6875 "/>
</g>
</g>
</g>
</svg>
