<?xml version="1.0" encoding="UTF-8"?>
<svg xmlns="http://www.w3.org/2000/svg" xmlns:xlink="http://www.w3.org/1999/xlink" width="90px" height="18px" viewBox="0 0 90 18" version="1.1">
<defs>
<clipPath id="clip1">
  <path d="M 3 0 L 15 0 L 15 8 L 3 8 Z M 3 0 "/>
</clipPath>
<clipPath id="clip2">
  <path d="M 0.300781 0.148438 L 89.550781 0.148438 C 89.632812 0.148438 89.703125 0.21875 89.703125 0.300781 L 89.703125 17.699219 C 89.703125 17.78125 89.632812 17.851562 89.550781 17.851562 L 0.300781 17.851562 C 0.21875 17.851562 0.148438 17.78125 0.148438 17.699219 L 0.148438 0.300781 C 0.148438 0.21875 0.21875 0.148438 0.300781 0.148438 Z M 0.300781 0.148438 "/>
</clipPath>
<clipPath id="clip3">
  <path d="M 0 6 L 4 6 L 4 12 L 0 12 Z M 0 6 "/>
</clipPath>
<clipPath id="clip4">
  <path d="M 0.300781 0.148438 L 89.550781 0.148438 C 89.632812 0.148438 89.703125 0.21875 89.703125 0.300781 L 89.703125 17.699219 C 89.703125 17.78125 89.632812 17.851562 89.550781 17.851562 L 0.300781 17.851562 C 0.21875 17.851562 0.148438 17.78125 0.148438 17.699219 L 0.148438 0.300781 C 0.148438 0.21875 0.21875 0.148438 0.300781 0.148438 Z M 0.300781 0.148438 "/>
</clipPath>
<clipPath id="clip5">
  <path d="M 3 10 L 15 10 L 15 18 L 3 18 Z M 3 10 "/>
</clipPath>
<clipPath id="clip6">
  <path d="M 0.300781 0.148438 L 89.550781 0.148438 C 89.632812 0.148438 89.703125 0.21875 89.703125 0.300781 L 89.703125 17.699219 C 89.703125 17.78125 89.632812 17.851562 89.550781 17.851562 L 0.300781 17.851562 C 0.21875 17.851562 0.148438 17.78125 0.148438 17.699219 L 0.148438 0.300781 C 0.148438 0.21875 0.21875 0.148438 0.300781 0.148438 Z M 0.300781 0.148438 "/>
</clipPath>
<clipPath id="clip7">
  <path d="M 13 6 L 18 6 L 18 12 L 13 12 Z M 13 6 "/>
</clipPath>
<clipPath id="clip8">
  <path d="M 0.300781 0.148438 L 89.550781 0.148438 C 89.632812 0.148438 89.703125 0.21875 89.703125 0.300781 L 89.703125 17.699219 C 89.703125 17.78125 89.632812 17.851562 89.550781 17.851562 L 0.300781 17.851562 C 0.21875 17.851562 0.148438 17.78125 0.148438 17.699219 L 0.148438 0.300781 C 0.148438 0.21875 0.21875 0.148438 0.300781 0.148438 Z M 0.300781 0.148438 "/>
</clipPath>
<clipPath id="clip9">
  <path d="M 6 6 L 11 6 L 11 12 L 6 12 Z M 6 6 "/>
</clipPath>
<clipPath id="clip10">
  <path d="M 0.300781 0.148438 L 89.550781 0.148438 C 89.632812 0.148438 89.703125 0.21875 89.703125 0.300781 L 89.703125 17.699219 C 89.703125 17.78125 89.632812 17.851562 89.550781 17.851562 L 0.300781 17.851562 C 0.21875 17.851562 0.148438 17.78125 0.148438 17.699219 L 0.148438 0.300781 C 0.148438 0.21875 0.21875 0.148438 0.300781 0.148438 Z M 0.300781 0.148438 "/>
</clipPath>
<clipPath id="clip11">
  <path d="M 21 4 L 30 4 L 30 14 L 21 14 Z M 21 4 "/>
</clipPath>
<clipPath id="clip12">
  <path d="M 0.300781 0.148438 L 89.550781 0.148438 C 89.632812 0.148438 89.703125 0.21875 89.703125 0.300781 L 89.703125 17.699219 C 89.703125 17.78125 89.632812 17.851562 89.550781 17.851562 L 0.300781 17.851562 C 0.21875 17.851562 0.148438 17.78125 0.148438 17.699219 L 0.148438 0.300781 C 0.148438 0.21875 0.21875 0.148438 0.300781 0.148438 Z M 0.300781 0.148438 "/>
</clipPath>
<clipPath id="clip13">
  <path d="M 31 4 L 34 4 L 34 14 L 31 14 Z M 31 4 "/>
</clipPath>
<clipPath id="clip14">
  <path d="M 0.300781 0.148438 L 89.550781 0.148438 C 89.632812 0.148438 89.703125 0.21875 89.703125 0.300781 L 89.703125 17.699219 C 89.703125 17.78125 89.632812 17.851562 89.550781 17.851562 L 0.300781 17.851562 C 0.21875 17.851562 0.148438 17.78125 0.148438 17.699219 L 0.148438 0.300781 C 0.148438 0.21875 0.21875 0.148438 0.300781 0.148438 Z M 0.300781 0.148438 "/>
</clipPath>
<clipPath id="clip15">
  <path d="M 37 4 L 46 4 L 46 14 L 37 14 Z M 37 4 "/>
</clipPath>
<clipPath id="clip16">
  <path d="M 0.300781 0.148438 L 89.550781 0.148438 C 89.632812 0.148438 89.703125 0.21875 89.703125 0.300781 L 89.703125 17.699219 C 89.703125 17.78125 89.632812 17.851562 89.550781 17.851562 L 0.300781 17.851562 C 0.21875 17.851562 0.148438 17.78125 0.148438 17.699219 L 0.148438 0.300781 C 0.148438 0.21875 0.21875 0.148438 0.300781 0.148438 Z M 0.300781 0.148438 "/>
</clipPath>
<clipPath id="clip17">
  <path d="M 47 4 L 58 4 L 58 14 L 47 14 Z M 47 4 "/>
</clipPath>
<clipPath id="clip18">
  <path d="M 0.300781 0.148438 L 89.550781 0.148438 C 89.632812 0.148438 89.703125 0.21875 89.703125 0.300781 L 89.703125 17.699219 C 89.703125 17.78125 89.632812 17.851562 89.550781 17.851562 L 0.300781 17.851562 C 0.21875 17.851562 0.148438 17.78125 0.148438 17.699219 L 0.148438 0.300781 C 0.148438 0.21875 0.21875 0.148438 0.300781 0.148438 Z M 0.300781 0.148438 "/>
</clipPath>
<clipPath id="clip19">
  <path d="M 60 4 L 69 4 L 69 14 L 60 14 Z M 60 4 "/>
</clipPath>
<clipPath id="clip20">
  <path d="M 0.300781 0.148438 L 89.550781 0.148438 C 89.632812 0.148438 89.703125 0.21875 89.703125 0.300781 L 89.703125 17.699219 C 89.703125 17.78125 89.632812 17.851562 89.550781 17.851562 L 0.300781 17.851562 C 0.21875 17.851562 0.148438 17.78125 0.148438 17.699219 L 0.148438 0.300781 C 0.148438 0.21875 0.21875 0.148438 0.300781 0.148438 Z M 0.300781 0.148438 "/>
</clipPath>
<clipPath id="clip21">
  <path d="M 71 4 L 81 4 L 81 15 L 71 15 Z M 71 4 "/>
</clipPath>
<clipPath id="clip22">
  <path d="M 0.300781 0.148438 L 89.550781 0.148438 C 89.632812 0.148438 89.703125 0.21875 89.703125 0.300781 L 89.703125 17.699219 C 89.703125 17.78125 89.632812 17.851562 89.550781 17.851562 L 0.300781 17.851562 C 0.21875 17.851562 0.148438 17.78125 0.148438 17.699219 L 0.148438 0.300781 C 0.148438 0.21875 0.21875 0.148438 0.300781 0.148438 Z M 0.300781 0.148438 "/>
</clipPath>
<clipPath id="clip23">
  <path d="M 82 4 L 90 4 L 90 14 L 82 14 Z M 82 4 "/>
</clipPath>
<clipPath id="clip24">
  <path d="M 0.300781 0.148438 L 89.550781 0.148438 C 89.632812 0.148438 89.703125 0.21875 89.703125 0.300781 L 89.703125 17.699219 C 89.703125 17.78125 89.632812 17.851562 89.550781 17.851562 L 0.300781 17.851562 C 0.21875 17.851562 0.148438 17.78125 0.148438 17.699219 L 0.148438 0.300781 C 0.148438 0.21875 0.21875 0.148438 0.300781 0.148438 Z M 0.300781 0.148438 "/>
</clipPath>
</defs>
<g id="surface1">
<g clip-path="url(#clip1)" clip-rule="nonzero">
<g clip-path="url(#clip2)" clip-rule="nonzero">
<path style=" stroke:none;fill-rule:nonzero;fill:rgb(100%,100%,100%);fill-opacity:0.501961;" d="M 5.425781 7.5625 L 8.921875 4.066406 L 12.417969 7.5625 L 14.449219 5.527344 L 8.921875 0 L 3.390625 5.527344 Z M 5.425781 7.5625 "/>
</g>
</g>
<g clip-path="url(#clip3)" clip-rule="nonzero">
<g clip-path="url(#clip4)" clip-rule="nonzero">
<path style=" stroke:none;fill-rule:evenodd;fill:rgb(100%,100%,100%);fill-opacity:0.501961;" d="M 1.957031 6.964844 L 3.988281 8.996094 L 1.957031 11.03125 L -0.078125 8.996094 Z M 1.957031 6.964844 "/>
</g>
</g>
<g clip-path="url(#clip5)" clip-rule="nonzero">
<g clip-path="url(#clip6)" clip-rule="nonzero">
<path style=" stroke:none;fill-rule:nonzero;fill:rgb(100%,100%,100%);fill-opacity:0.501961;" d="M 5.425781 10.433594 L 8.921875 13.929688 L 12.417969 10.433594 L 14.453125 12.464844 L 14.449219 12.46875 L 8.921875 18 L 3.386719 12.464844 Z M 5.425781 10.433594 "/>
</g>
</g>
<g clip-path="url(#clip7)" clip-rule="nonzero">
<g clip-path="url(#clip8)" clip-rule="nonzero">
<path style=" stroke:none;fill-rule:evenodd;fill:rgb(100%,100%,100%);fill-opacity:0.501961;" d="M 17.921875 9 L 15.886719 11.035156 L 13.855469 9 L 15.886719 6.964844 Z M 17.921875 9 "/>
</g>
</g>
<g clip-path="url(#clip9)" clip-rule="nonzero">
<g clip-path="url(#clip10)" clip-rule="nonzero">
<path style=" stroke:none;fill-rule:nonzero;fill:rgb(100%,100%,100%);fill-opacity:0.501961;" d="M 10.984375 8.996094 L 8.921875 6.933594 L 6.859375 8.996094 L 6.855469 8.996094 L 8.921875 11.0625 L 10.984375 9 Z M 10.984375 8.996094 "/>
</g>
</g>
<g clip-path="url(#clip11)" clip-rule="nonzero">
<g clip-path="url(#clip12)" clip-rule="nonzero">
<path style=" stroke:none;fill-rule:nonzero;fill:rgb(100%,100%,100%);fill-opacity:0.501961;" d="M 21.09375 4.359375 L 25.515625 4.359375 C 26.613281 4.359375 27.445312 4.640625 28.007812 5.203125 C 28.441406 5.644531 28.660156 6.183594 28.660156 6.828125 L 28.660156 6.855469 C 28.660156 7.128906 28.625 7.367188 28.558594 7.578125 C 28.492188 7.789062 28.402344 7.976562 28.285156 8.144531 C 28.171875 8.3125 28.042969 8.460938 27.894531 8.585938 C 27.742188 8.714844 27.585938 8.824219 27.414062 8.914062 C 27.964844 9.121094 28.402344 9.40625 28.714844 9.769531 C 29.035156 10.125 29.191406 10.621094 29.191406 11.257812 L 29.191406 11.285156 C 29.191406 11.722656 29.109375 12.105469 28.941406 12.433594 C 28.773438 12.757812 28.53125 13.03125 28.21875 13.25 C 27.90625 13.46875 27.527344 13.632812 27.085938 13.742188 C 26.648438 13.851562 26.160156 13.90625 25.625 13.90625 L 21.09375 13.90625 Z M 25.074219 8.21875 C 25.535156 8.21875 25.90625 8.140625 26.179688 7.980469 C 26.449219 7.820312 26.585938 7.5625 26.585938 7.210938 L 26.585938 7.183594 C 26.585938 6.863281 26.46875 6.621094 26.230469 6.453125 C 25.996094 6.285156 25.65625 6.199219 25.207031 6.199219 L 23.136719 6.199219 L 23.136719 8.21875 Z M 25.632812 12.0625 C 26.097656 12.0625 26.460938 11.980469 26.722656 11.8125 C 26.988281 11.644531 27.121094 11.382812 27.121094 11.027344 L 27.121094 11 C 27.121094 10.683594 26.996094 10.429688 26.75 10.246094 C 26.503906 10.058594 26.109375 9.964844 25.5625 9.964844 L 23.136719 9.964844 L 23.136719 12.066406 L 25.632812 12.066406 Z M 25.632812 12.0625 "/>
</g>
</g>
<g clip-path="url(#clip13)" clip-rule="nonzero">
<g clip-path="url(#clip14)" clip-rule="nonzero">
<path style=" stroke:none;fill-rule:nonzero;fill:rgb(100%,100%,100%);fill-opacity:0.501961;" d="M 31.828125 4.359375 L 33.925781 4.359375 L 33.925781 13.90625 L 31.828125 13.90625 Z M 31.828125 4.359375 "/>
</g>
</g>
<g clip-path="url(#clip15)" clip-rule="nonzero">
<g clip-path="url(#clip16)" clip-rule="nonzero">
<path style=" stroke:none;fill-rule:nonzero;fill:rgb(100%,100%,100%);fill-opacity:0.501961;" d="M 37.105469 4.359375 L 39.042969 4.359375 L 43.515625 10.234375 L 43.515625 4.359375 L 45.589844 4.359375 L 45.589844 13.90625 L 43.804688 13.90625 L 39.179688 7.835938 L 39.179688 13.90625 L 37.105469 13.90625 Z M 37.105469 4.359375 "/>
</g>
</g>
<g clip-path="url(#clip17)" clip-rule="nonzero">
<g clip-path="url(#clip18)" clip-rule="nonzero">
<path style=" stroke:none;fill-rule:nonzero;fill:rgb(100%,100%,100%);fill-opacity:0.501961;" d="M 51.945312 4.292969 L 53.882812 4.292969 L 57.976562 13.90625 L 55.777344 13.90625 L 54.90625 11.765625 L 50.867188 11.765625 L 49.996094 13.90625 L 47.855469 13.90625 Z M 54.15625 9.910156 L 52.886719 6.816406 L 51.617188 9.910156 Z M 54.15625 9.910156 "/>
</g>
</g>
<g clip-path="url(#clip19)" clip-rule="nonzero">
<g clip-path="url(#clip20)" clip-rule="nonzero">
<path style=" stroke:none;fill-rule:nonzero;fill:rgb(100%,100%,100%);fill-opacity:0.501961;" d="M 60.238281 4.359375 L 62.179688 4.359375 L 66.648438 10.234375 L 66.648438 4.359375 L 68.722656 4.359375 L 68.722656 13.90625 L 66.9375 13.90625 L 62.3125 7.835938 L 62.3125 13.90625 L 60.238281 13.90625 Z M 60.238281 4.359375 "/>
</g>
</g>
<g clip-path="url(#clip21)" clip-rule="nonzero">
<g clip-path="url(#clip22)" clip-rule="nonzero">
<path style=" stroke:none;fill-rule:nonzero;fill:rgb(100%,100%,100%);fill-opacity:0.501961;" d="M 76.28125 14.070312 C 75.578125 14.070312 74.929688 13.941406 74.332031 13.6875 C 73.730469 13.433594 73.210938 13.085938 72.773438 12.644531 C 72.339844 12.203125 71.996094 11.683594 71.753906 11.082031 C 71.507812 10.480469 71.386719 9.84375 71.386719 9.160156 L 71.386719 9.132812 C 71.386719 8.449219 71.507812 7.8125 71.753906 7.21875 C 71.996094 6.621094 72.339844 6.097656 72.773438 5.648438 C 73.210938 5.199219 73.734375 4.84375 74.34375 4.585938 C 74.953125 4.324219 75.625 4.195312 76.363281 4.195312 C 76.804688 4.195312 77.214844 4.234375 77.578125 4.304688 C 77.949219 4.378906 78.285156 4.480469 78.585938 4.605469 C 78.886719 4.734375 79.160156 4.886719 79.414062 5.070312 C 79.671875 5.25 79.90625 5.449219 80.125 5.671875 L 78.789062 7.210938 C 78.417969 6.871094 78.035156 6.609375 77.648438 6.421875 C 77.261719 6.226562 76.828125 6.132812 76.347656 6.132812 C 75.949219 6.132812 75.574219 6.210938 75.238281 6.367188 C 74.894531 6.519531 74.601562 6.730469 74.359375 7.003906 C 74.113281 7.277344 73.917969 7.59375 73.785156 7.953125 C 73.648438 8.3125 73.582031 8.695312 73.582031 9.105469 L 73.582031 9.132812 C 73.582031 9.542969 73.648438 9.925781 73.785156 10.289062 C 73.917969 10.65625 74.109375 10.972656 74.347656 11.246094 C 74.59375 11.519531 74.882812 11.734375 75.222656 11.894531 C 75.5625 12.054688 75.9375 12.132812 76.347656 12.132812 C 76.894531 12.132812 77.355469 12.03125 77.730469 11.832031 C 78.109375 11.632812 78.484375 11.359375 78.855469 11.011719 L 80.191406 12.363281 C 79.945312 12.628906 79.691406 12.863281 79.429688 13.074219 C 79.167969 13.285156 78.875 13.460938 78.5625 13.609375 C 78.25 13.761719 77.90625 13.875 77.535156 13.953125 C 77.160156 14.03125 76.742188 14.070312 76.28125 14.070312 Z M 76.28125 14.070312 "/>
</g>
</g>
<g clip-path="url(#clip23)" clip-rule="nonzero">
<g clip-path="url(#clip24)" clip-rule="nonzero">
<path style=" stroke:none;fill-rule:nonzero;fill:rgb(100%,100%,100%);fill-opacity:0.501961;" d="M 82.664062 4.359375 L 89.851562 4.359375 L 89.851562 6.226562 L 84.738281 6.226562 L 84.738281 8.164062 L 89.238281 8.164062 L 89.238281 10.03125 L 84.738281 10.03125 L 84.738281 12.035156 L 89.917969 12.035156 L 89.917969 13.90625 L 82.664062 13.90625 Z M 82.664062 4.359375 "/>
</g>
</g>
</g>
</svg>
