<?xml version="1.0" encoding="UTF-8"?>
<svg xmlns="http://www.w3.org/2000/svg" xmlns:xlink="http://www.w3.org/1999/xlink" width="264px" height="40px" viewBox="0 0 264 40" version="1.1">
<defs>
<clipPath id="clip1">
  <path d="M 58 6 L 246 6 L 246 34 L 58 34 Z M 58 6 "/>
</clipPath>
<clipPath id="clip2">
  <path d="M 0.667969 0.332031 L 263.027344 0.332031 C 263.210938 0.332031 263.359375 0.484375 263.359375 0.667969 L 263.359375 39.332031 C 263.359375 39.515625 263.210938 39.667969 263.027344 39.667969 L 0.667969 39.667969 C 0.484375 39.667969 0.332031 39.515625 0.332031 39.332031 L 0.332031 0.667969 C 0.332031 0.484375 0.484375 0.332031 0.667969 0.332031 Z M 0.667969 0.332031 "/>
</clipPath>
<clipPath id="clip3">
  <path d="M 28 19 L 32 19 L 32 23 L 28 23 Z M 28 19 "/>
</clipPath>
<clipPath id="clip4">
  <path d="M 0.667969 0.332031 L 263.027344 0.332031 C 263.210938 0.332031 263.359375 0.484375 263.359375 0.667969 L 263.359375 39.332031 C 263.359375 39.515625 263.210938 39.667969 263.027344 39.667969 L 0.667969 39.667969 C 0.484375 39.667969 0.332031 39.515625 0.332031 39.332031 L 0.332031 0.667969 C 0.332031 0.484375 0.484375 0.332031 0.667969 0.332031 Z M 0.667969 0.332031 "/>
</clipPath>
<clipPath id="clip5">
  <path d="M 35 14 L 40 14 L 40 18 L 35 18 Z M 35 14 "/>
</clipPath>
<clipPath id="clip6">
  <path d="M 0.667969 0.332031 L 263.027344 0.332031 C 263.210938 0.332031 263.359375 0.484375 263.359375 0.667969 L 263.359375 39.332031 C 263.359375 39.515625 263.210938 39.667969 263.027344 39.667969 L 0.667969 39.667969 C 0.484375 39.667969 0.332031 39.515625 0.332031 39.332031 L 0.332031 0.667969 C 0.332031 0.484375 0.484375 0.332031 0.667969 0.332031 Z M 0.667969 0.332031 "/>
</clipPath>
<clipPath id="clip7">
  <path d="M 43 10 L 47 10 L 47 14 L 43 14 Z M 43 10 "/>
</clipPath>
<clipPath id="clip8">
  <path d="M 0.667969 0.332031 L 263.027344 0.332031 C 263.210938 0.332031 263.359375 0.484375 263.359375 0.667969 L 263.359375 39.332031 C 263.359375 39.515625 263.210938 39.667969 263.027344 39.667969 L 0.667969 39.667969 C 0.484375 39.667969 0.332031 39.515625 0.332031 39.332031 L 0.332031 0.667969 C 0.332031 0.484375 0.484375 0.332031 0.667969 0.332031 Z M 0.667969 0.332031 "/>
</clipPath>
<clipPath id="clip9">
  <path d="M 21 5 L 25 5 L 25 10 L 21 10 Z M 21 5 "/>
</clipPath>
<clipPath id="clip10">
  <path d="M 0.667969 0.332031 L 263.027344 0.332031 C 263.210938 0.332031 263.359375 0.484375 263.359375 0.667969 L 263.359375 39.332031 C 263.359375 39.515625 263.210938 39.667969 263.027344 39.667969 L 0.667969 39.667969 C 0.484375 39.667969 0.332031 39.515625 0.332031 39.332031 L 0.332031 0.667969 C 0.332031 0.484375 0.484375 0.332031 0.667969 0.332031 Z M 0.667969 0.332031 "/>
</clipPath>
<clipPath id="clip11">
  <path d="M 28 1 L 32 1 L 32 5 L 28 5 Z M 28 1 "/>
</clipPath>
<clipPath id="clip12">
  <path d="M 0.667969 0.332031 L 263.027344 0.332031 C 263.210938 0.332031 263.359375 0.484375 263.359375 0.667969 L 263.359375 39.332031 C 263.359375 39.515625 263.210938 39.667969 263.027344 39.667969 L 0.667969 39.667969 C 0.484375 39.667969 0.332031 39.515625 0.332031 39.332031 L 0.332031 0.667969 C 0.332031 0.484375 0.484375 0.332031 0.667969 0.332031 Z M 0.667969 0.332031 "/>
</clipPath>
<clipPath id="clip13">
  <path d="M 28 10 L 32 10 L 32 14 L 28 14 Z M 28 10 "/>
</clipPath>
<clipPath id="clip14">
  <path d="M 0.667969 0.332031 L 263.027344 0.332031 C 263.210938 0.332031 263.359375 0.484375 263.359375 0.667969 L 263.359375 39.332031 C 263.359375 39.515625 263.210938 39.667969 263.027344 39.667969 L 0.667969 39.667969 C 0.484375 39.667969 0.332031 39.515625 0.332031 39.332031 L 0.332031 0.667969 C 0.332031 0.484375 0.484375 0.332031 0.667969 0.332031 Z M 0.667969 0.332031 "/>
</clipPath>
<clipPath id="clip15">
  <path d="M 35 5 L 40 5 L 40 10 L 35 10 Z M 35 5 "/>
</clipPath>
<clipPath id="clip16">
  <path d="M 0.667969 0.332031 L 263.027344 0.332031 C 263.210938 0.332031 263.359375 0.484375 263.359375 0.667969 L 263.359375 39.332031 C 263.359375 39.515625 263.210938 39.667969 263.027344 39.667969 L 0.667969 39.667969 C 0.484375 39.667969 0.332031 39.515625 0.332031 39.332031 L 0.332031 0.667969 C 0.332031 0.484375 0.484375 0.332031 0.667969 0.332031 Z M 0.667969 0.332031 "/>
</clipPath>
<clipPath id="clip17">
  <path d="M 35 23 L 40 23 L 40 27 L 35 27 Z M 35 23 "/>
</clipPath>
<clipPath id="clip18">
  <path d="M 0.667969 0.332031 L 263.027344 0.332031 C 263.210938 0.332031 263.359375 0.484375 263.359375 0.667969 L 263.359375 39.332031 C 263.359375 39.515625 263.210938 39.667969 263.027344 39.667969 L 0.667969 39.667969 C 0.484375 39.667969 0.332031 39.515625 0.332031 39.332031 L 0.332031 0.667969 C 0.332031 0.484375 0.484375 0.332031 0.667969 0.332031 Z M 0.667969 0.332031 "/>
</clipPath>
<clipPath id="clip19">
  <path d="M 43 19 L 47 19 L 47 23 L 43 23 Z M 43 19 "/>
</clipPath>
<clipPath id="clip20">
  <path d="M 0.667969 0.332031 L 263.027344 0.332031 C 263.210938 0.332031 263.359375 0.484375 263.359375 0.667969 L 263.359375 39.332031 C 263.359375 39.515625 263.210938 39.667969 263.027344 39.667969 L 0.667969 39.667969 C 0.484375 39.667969 0.332031 39.515625 0.332031 39.332031 L 0.332031 0.667969 C 0.332031 0.484375 0.484375 0.332031 0.667969 0.332031 Z M 0.667969 0.332031 "/>
</clipPath>
<clipPath id="clip21">
  <path d="M 35 32 L 40 32 L 40 36 L 35 36 Z M 35 32 "/>
</clipPath>
<clipPath id="clip22">
  <path d="M 0.667969 0.332031 L 263.027344 0.332031 C 263.210938 0.332031 263.359375 0.484375 263.359375 0.667969 L 263.359375 39.332031 C 263.359375 39.515625 263.210938 39.667969 263.027344 39.667969 L 0.667969 39.667969 C 0.484375 39.667969 0.332031 39.515625 0.332031 39.332031 L 0.332031 0.667969 C 0.332031 0.484375 0.484375 0.332031 0.667969 0.332031 Z M 0.667969 0.332031 "/>
</clipPath>
<clipPath id="clip23">
  <path d="M 43 27 L 47 27 L 47 31 L 43 31 Z M 43 27 "/>
</clipPath>
<clipPath id="clip24">
  <path d="M 0.667969 0.332031 L 263.027344 0.332031 C 263.210938 0.332031 263.359375 0.484375 263.359375 0.667969 L 263.359375 39.332031 C 263.359375 39.515625 263.210938 39.667969 263.027344 39.667969 L 0.667969 39.667969 C 0.484375 39.667969 0.332031 39.515625 0.332031 39.332031 L 0.332031 0.667969 C 0.332031 0.484375 0.484375 0.332031 0.667969 0.332031 Z M 0.667969 0.332031 "/>
</clipPath>
<clipPath id="clip25">
  <path d="M 28 36 L 32 36 L 32 40 L 28 40 Z M 28 36 "/>
</clipPath>
<clipPath id="clip26">
  <path d="M 0.667969 0.332031 L 263.027344 0.332031 C 263.210938 0.332031 263.359375 0.484375 263.359375 0.667969 L 263.359375 39.332031 C 263.359375 39.515625 263.210938 39.667969 263.027344 39.667969 L 0.667969 39.667969 C 0.484375 39.667969 0.332031 39.515625 0.332031 39.332031 L 0.332031 0.667969 C 0.332031 0.484375 0.484375 0.332031 0.667969 0.332031 Z M 0.667969 0.332031 "/>
</clipPath>
<clipPath id="clip27">
  <path d="M 28 27 L 32 27 L 32 31 L 28 31 Z M 28 27 "/>
</clipPath>
<clipPath id="clip28">
  <path d="M 0.667969 0.332031 L 263.027344 0.332031 C 263.210938 0.332031 263.359375 0.484375 263.359375 0.667969 L 263.359375 39.332031 C 263.359375 39.515625 263.210938 39.667969 263.027344 39.667969 L 0.667969 39.667969 C 0.484375 39.667969 0.332031 39.515625 0.332031 39.332031 L 0.332031 0.667969 C 0.332031 0.484375 0.484375 0.332031 0.667969 0.332031 Z M 0.667969 0.332031 "/>
</clipPath>
<clipPath id="clip29">
  <path d="M 21 14 L 25 14 L 25 18 L 21 18 Z M 21 14 "/>
</clipPath>
<clipPath id="clip30">
  <path d="M 0.667969 0.332031 L 263.027344 0.332031 C 263.210938 0.332031 263.359375 0.484375 263.359375 0.667969 L 263.359375 39.332031 C 263.359375 39.515625 263.210938 39.667969 263.027344 39.667969 L 0.667969 39.667969 C 0.484375 39.667969 0.332031 39.515625 0.332031 39.332031 L 0.332031 0.667969 C 0.332031 0.484375 0.484375 0.332031 0.667969 0.332031 Z M 0.667969 0.332031 "/>
</clipPath>
<clipPath id="clip31">
  <path d="M 21 32 L 25 32 L 25 36 L 21 36 Z M 21 32 "/>
</clipPath>
<clipPath id="clip32">
  <path d="M 0.667969 0.332031 L 263.027344 0.332031 C 263.210938 0.332031 263.359375 0.484375 263.359375 0.667969 L 263.359375 39.332031 C 263.359375 39.515625 263.210938 39.667969 263.027344 39.667969 L 0.667969 39.667969 C 0.484375 39.667969 0.332031 39.515625 0.332031 39.332031 L 0.332031 0.667969 C 0.332031 0.484375 0.484375 0.332031 0.667969 0.332031 Z M 0.667969 0.332031 "/>
</clipPath>
<clipPath id="clip33">
  <path d="M 21 23 L 25 23 L 25 27 L 21 27 Z M 21 23 "/>
</clipPath>
<clipPath id="clip34">
  <path d="M 0.667969 0.332031 L 263.027344 0.332031 C 263.210938 0.332031 263.359375 0.484375 263.359375 0.667969 L 263.359375 39.332031 C 263.359375 39.515625 263.210938 39.667969 263.027344 39.667969 L 0.667969 39.667969 C 0.484375 39.667969 0.332031 39.515625 0.332031 39.332031 L 0.332031 0.667969 C 0.332031 0.484375 0.484375 0.332031 0.667969 0.332031 Z M 0.667969 0.332031 "/>
</clipPath>
<clipPath id="clip35">
  <path d="M 14 10 L 18 10 L 18 14 L 14 14 Z M 14 10 "/>
</clipPath>
<clipPath id="clip36">
  <path d="M 0.667969 0.332031 L 263.027344 0.332031 C 263.210938 0.332031 263.359375 0.484375 263.359375 0.667969 L 263.359375 39.332031 C 263.359375 39.515625 263.210938 39.667969 263.027344 39.667969 L 0.667969 39.667969 C 0.484375 39.667969 0.332031 39.515625 0.332031 39.332031 L 0.332031 0.667969 C 0.332031 0.484375 0.484375 0.332031 0.667969 0.332031 Z M 0.667969 0.332031 "/>
</clipPath>
<clipPath id="clip37">
  <path d="M 14 27 L 18 27 L 18 31 L 14 31 Z M 14 27 "/>
</clipPath>
<clipPath id="clip38">
  <path d="M 0.667969 0.332031 L 263.027344 0.332031 C 263.210938 0.332031 263.359375 0.484375 263.359375 0.667969 L 263.359375 39.332031 C 263.359375 39.515625 263.210938 39.667969 263.027344 39.667969 L 0.667969 39.667969 C 0.484375 39.667969 0.332031 39.515625 0.332031 39.332031 L 0.332031 0.667969 C 0.332031 0.484375 0.484375 0.332031 0.667969 0.332031 Z M 0.667969 0.332031 "/>
</clipPath>
<clipPath id="clip39">
  <path d="M 14 19 L 18 19 L 18 23 L 14 23 Z M 14 19 "/>
</clipPath>
<clipPath id="clip40">
  <path d="M 0.667969 0.332031 L 263.027344 0.332031 C 263.210938 0.332031 263.359375 0.484375 263.359375 0.667969 L 263.359375 39.332031 C 263.359375 39.515625 263.210938 39.667969 263.027344 39.667969 L 0.667969 39.667969 C 0.484375 39.667969 0.332031 39.515625 0.332031 39.332031 L 0.332031 0.667969 C 0.332031 0.484375 0.484375 0.332031 0.667969 0.332031 Z M 0.667969 0.332031 "/>
</clipPath>
<clipPath id="clip41">
  <path d="M 191 6 L 195 6 L 195 10 L 191 10 Z M 191 6 "/>
</clipPath>
<clipPath id="clip42">
  <path d="M 0.667969 0.332031 L 263.027344 0.332031 C 263.210938 0.332031 263.359375 0.484375 263.359375 0.667969 L 263.359375 39.332031 C 263.359375 39.515625 263.210938 39.667969 263.027344 39.667969 L 0.667969 39.667969 C 0.484375 39.667969 0.332031 39.515625 0.332031 39.332031 L 0.332031 0.667969 C 0.332031 0.484375 0.484375 0.332031 0.667969 0.332031 Z M 0.667969 0.332031 "/>
</clipPath>
<clipPath id="clip43">
  <path d="M 224 6 L 228 6 L 228 10 L 224 10 Z M 224 6 "/>
</clipPath>
<clipPath id="clip44">
  <path d="M 0.667969 0.332031 L 263.027344 0.332031 C 263.210938 0.332031 263.359375 0.484375 263.359375 0.667969 L 263.359375 39.332031 C 263.359375 39.515625 263.210938 39.667969 263.027344 39.667969 L 0.667969 39.667969 C 0.484375 39.667969 0.332031 39.515625 0.332031 39.332031 L 0.332031 0.667969 C 0.332031 0.484375 0.484375 0.332031 0.667969 0.332031 Z M 0.667969 0.332031 "/>
</clipPath>
<clipPath id="clip45">
  <path d="M 216 30 L 220 30 L 220 34 L 216 34 Z M 216 30 "/>
</clipPath>
<clipPath id="clip46">
  <path d="M 0.667969 0.332031 L 263.027344 0.332031 C 263.210938 0.332031 263.359375 0.484375 263.359375 0.667969 L 263.359375 39.332031 C 263.359375 39.515625 263.210938 39.667969 263.027344 39.667969 L 0.667969 39.667969 C 0.484375 39.667969 0.332031 39.515625 0.332031 39.332031 L 0.332031 0.667969 C 0.332031 0.484375 0.484375 0.332031 0.667969 0.332031 Z M 0.667969 0.332031 "/>
</clipPath>
</defs>
<g id="surface1">
<g clip-path="url(#clip1)" clip-rule="nonzero">
<g clip-path="url(#clip2)" clip-rule="nonzero">
<path style=" stroke:none;fill-rule:nonzero;fill:rgb(100%,100%,100%);fill-opacity:0.501961;" d="M 70.851562 27.085938 L 70.851562 20.652344 C 70.851562 17.320312 68.160156 14.625 64.785156 14.625 L 64.527344 14.625 C 63.21875 14.625 61.90625 15.078125 61.273438 15.867188 L 61.273438 8.234375 C 61.273438 7.292969 60.558594 6.808594 59.847656 6.808594 C 59.140625 6.808594 58.425781 7.292969 58.425781 8.234375 L 58.425781 31.765625 C 58.425781 32.667969 59.140625 33.113281 59.847656 33.113281 C 60.488281 33.113281 61.121094 32.738281 61.234375 31.992188 C 61.761719 32.511719 62.839844 33.113281 64.453125 33.113281 L 64.785156 33.113281 C 68.121094 33.113281 70.851562 30.421875 70.851562 27.085938 Z M 68.007812 27.085938 C 68.007812 28.847656 66.585938 30.273438 64.785156 30.273438 L 64.453125 30.273438 C 62.765625 30.273438 61.273438 29.148438 61.273438 27.3125 L 61.273438 20.351562 C 61.273438 18.632812 62.765625 17.472656 64.453125 17.472656 L 64.785156 17.472656 C 66.585938 17.472656 68.007812 18.894531 68.007812 20.652344 Z M 82.785156 31.691406 C 82.785156 30.980469 82.339844 30.273438 81.367188 30.273438 C 80.207031 30.234375 79.308594 29.332031 79.308594 28.171875 L 79.308594 8.234375 C 79.308594 7.292969 78.601562 6.808594 77.886719 6.808594 C 77.171875 6.808594 76.46875 7.292969 76.46875 8.234375 L 76.46875 28.171875 C 76.46875 30.90625 78.632812 33.113281 81.367188 33.113281 C 82.339844 33.113281 82.785156 32.398438 82.785156 31.691406 Z M 99.101562 27.085938 L 99.101562 20.652344 C 99.101562 17.320312 96.40625 14.625 93.082031 14.625 L 92.707031 14.625 C 89.375 14.625 86.679688 17.320312 86.679688 20.652344 L 86.679688 27.085938 C 86.679688 30.421875 89.375 33.113281 92.707031 33.113281 L 93.082031 33.113281 C 96.40625 33.113281 99.101562 30.421875 99.101562 27.085938 Z M 96.261719 27.085938 C 96.261719 28.847656 94.832031 30.273438 93.082031 30.273438 L 92.738281 30.273438 C 90.945312 30.273438 89.519531 28.847656 89.519531 27.085938 L 89.519531 20.652344 C 89.519531 18.894531 90.945312 17.472656 92.707031 17.472656 L 93.082031 17.472656 C 94.832031 17.472656 96.261719 18.894531 96.261719 20.652344 Z M 116.351562 27.085938 C 116.351562 26.113281 115.640625 25.632812 114.925781 25.632812 C 114.261719 25.632812 113.546875 26.113281 113.507812 27.085938 C 113.433594 28.847656 112.085938 30.273438 110.328125 30.273438 L 109.992188 30.273438 C 108.195312 30.273438 106.773438 28.847656 106.773438 27.085938 L 106.773438 20.652344 C 106.773438 18.894531 108.195312 17.472656 109.953125 17.472656 L 110.328125 17.472656 C 112.085938 17.472656 113.433594 18.78125 113.507812 20.691406 C 113.546875 21.625 114.253906 22.074219 114.925781 22.074219 C 115.640625 22.074219 116.351562 21.585938 116.351562 20.652344 C 116.351562 17.320312 113.621094 14.625 110.328125 14.625 L 109.953125 14.625 C 106.660156 14.625 103.925781 17.285156 103.925781 20.652344 L 103.925781 27.085938 C 103.925781 30.421875 106.621094 33.113281 109.953125 33.113281 L 110.328125 33.113281 C 113.660156 33.113281 116.351562 30.421875 116.351562 27.085938 Z M 134.273438 31.691406 C 134.273438 31.464844 134.238281 31.207031 134.085938 30.980469 L 128.960938 22 L 133.601562 17.058594 C 133.898438 16.761719 134.011719 16.425781 134.011719 16.085938 C 134.011719 15.339844 133.378906 14.625 132.554688 14.625 C 132.21875 14.625 131.839844 14.78125 131.546875 15.113281 L 124.433594 22.671875 L 124.433594 8.234375 C 124.433594 7.292969 123.71875 6.808594 123.011719 6.808594 C 122.300781 6.808594 121.585938 7.292969 121.585938 8.234375 L 121.585938 31.691406 C 121.585938 32.625 122.300781 33.113281 123.011719 33.113281 C 123.71875 33.113281 124.433594 32.625 124.433594 31.691406 L 124.433594 26.867188 L 126.941406 24.171875 L 131.621094 32.367188 C 131.921875 32.886719 132.367188 33.113281 132.8125 33.113281 C 133.679688 33.113281 134.273438 32.441406 134.273438 31.691406 Z M 150.441406 27.085938 C 150.441406 26.113281 149.726562 25.632812 149.019531 25.632812 C 148.347656 25.632812 147.632812 26.113281 147.59375 27.085938 C 147.519531 28.847656 146.171875 30.273438 144.414062 30.273438 L 144.082031 30.273438 C 142.28125 30.273438 140.859375 28.847656 140.859375 27.085938 L 140.859375 20.652344 C 140.859375 18.894531 142.28125 17.472656 144.039062 17.472656 L 144.414062 17.472656 C 146.171875 17.472656 147.519531 18.78125 147.59375 20.691406 C 147.632812 21.625 148.347656 22.074219 149.019531 22.074219 C 149.726562 22.074219 150.441406 21.585938 150.441406 20.652344 C 150.441406 17.320312 147.707031 14.625 144.414062 14.625 L 144.039062 14.625 C 140.746094 14.625 138.019531 17.285156 138.019531 20.652344 L 138.019531 27.085938 C 138.019531 30.421875 140.714844 33.113281 144.039062 33.113281 L 144.414062 33.113281 C 147.746094 33.113281 150.441406 30.421875 150.441406 27.085938 Z M 168.101562 31.691406 L 168.101562 20.652344 C 168.101562 17.320312 165.40625 14.625 162.074219 14.625 L 161.78125 14.625 C 160.46875 14.625 159.160156 15.078125 158.519531 15.753906 L 158.519531 8.234375 C 158.519531 7.292969 157.8125 6.808594 157.101562 6.808594 C 156.386719 6.808594 155.679688 7.292969 155.679688 8.234375 L 155.679688 31.691406 C 155.679688 32.625 156.386719 33.113281 157.101562 33.113281 C 157.8125 33.113281 158.519531 32.625 158.519531 31.691406 L 158.519531 20.464844 C 158.519531 18.519531 160.207031 17.472656 161.925781 17.472656 C 163.574219 17.472656 165.261719 18.480469 165.261719 20.652344 L 165.261719 31.691406 C 165.261719 32.625 165.96875 33.113281 166.679688 33.113281 C 167.394531 33.113281 168.101562 32.625 168.101562 31.691406 Z M 186.8125 31.652344 C 186.8125 31.054688 186.433594 30.460938 185.613281 30.308594 C 184.941406 30.191406 184.640625 29.746094 184.640625 29.074219 L 184.640625 20.394531 C 184.640625 17.171875 182.09375 14.625 178.765625 14.625 L 178.5 14.625 C 176.519531 14.625 174.125 15.414062 172.925781 18.105469 C 172.8125 18.332031 172.78125 18.558594 172.78125 18.78125 C 172.78125 19.566406 173.488281 20.09375 174.199219 20.09375 C 174.6875 20.09375 175.171875 19.867188 175.472656 19.339844 C 176.1875 18.105469 176.96875 17.472656 178.507812 17.472656 L 178.765625 17.472656 C 180.414062 17.472656 181.792969 18.292969 181.792969 20.5 C 181.792969 20.691406 181.792969 20.988281 181.6875 21.140625 C 180.785156 22.414062 172.480469 21.367188 172.21875 27.273438 L 172.21875 27.726562 C 172.21875 31.207031 175.214844 33.113281 178.238281 33.113281 L 178.582031 33.113281 C 180.113281 33.113281 181.535156 32.554688 182.621094 31.621094 C 183.105469 32.328125 183.894531 32.886719 185.167969 33.074219 C 185.238281 33.113281 185.351562 33.113281 185.425781 33.113281 C 186.328125 33.113281 186.8125 32.398438 186.8125 31.652344 Z M 181.792969 27.085938 C 181.792969 28.847656 180.339844 30.273438 178.582031 30.273438 L 178.238281 30.273438 C 176.332031 30.273438 175.058594 29.261719 175.058594 27.652344 L 175.058594 27.351562 C 175.171875 24.734375 179.027344 24.878906 181.792969 24.132812 Z M 194.148438 31.691406 L 194.148438 16.054688 C 194.148438 15.113281 193.433594 14.625 192.71875 14.625 C 192.011719 14.625 191.300781 15.113281 191.300781 16.054688 L 191.300781 31.691406 C 191.300781 32.625 192.011719 33.113281 192.71875 33.113281 C 193.433594 33.113281 194.148438 32.625 194.148438 31.691406 Z M 212.554688 31.691406 L 212.554688 20.652344 C 212.554688 16.539062 209.746094 14.625 206.566406 14.625 L 206.234375 14.625 C 204.921875 14.625 203.6875 15.078125 203.011719 15.753906 C 202.859375 15 202.226562 14.625 201.59375 14.625 C 200.839844 14.625 200.132812 15.152344 200.132812 16.054688 L 200.132812 31.691406 C 200.132812 32.625 200.839844 33.113281 201.554688 33.113281 C 202.265625 33.113281 202.972656 32.625 202.972656 31.691406 L 202.972656 20.652344 C 202.972656 18.894531 204.433594 17.472656 206.195312 17.472656 L 206.527344 17.472656 C 208.328125 17.472656 209.746094 18.894531 209.746094 20.652344 L 209.746094 31.691406 C 209.746094 32.625 210.460938 33.113281 211.167969 33.113281 C 211.878906 33.113281 212.554688 32.625 212.554688 31.691406 Z M 227.238281 31.691406 L 227.238281 16.054688 C 227.238281 15.113281 226.527344 14.625 225.8125 14.625 C 225.105469 14.625 224.394531 15.113281 224.394531 16.054688 L 224.394531 31.691406 C 224.394531 32.625 225.105469 33.113281 225.8125 33.113281 C 226.527344 33.113281 227.238281 32.625 227.238281 31.691406 Z M 245.234375 27.085938 L 245.234375 20.652344 C 245.234375 17.320312 242.539062 14.625 239.214844 14.625 L 238.839844 14.625 C 235.507812 14.625 232.8125 17.320312 232.8125 20.652344 L 232.8125 27.085938 C 232.8125 30.421875 235.507812 33.113281 238.839844 33.113281 L 239.214844 33.113281 C 242.539062 33.113281 245.234375 30.421875 245.234375 27.085938 Z M 242.394531 27.085938 C 242.394531 28.847656 240.972656 30.273438 239.214844 30.273438 L 238.875 30.273438 C 237.082031 30.273438 235.660156 28.847656 235.660156 27.085938 L 235.660156 20.652344 C 235.660156 18.894531 237.082031 17.472656 238.839844 17.472656 L 239.214844 17.472656 C 240.972656 17.472656 242.394531 18.894531 242.394531 20.652344 Z M 242.394531 27.085938 "/>
</g>
</g>
<g clip-path="url(#clip3)" clip-rule="nonzero">
<g clip-path="url(#clip4)" clip-rule="nonzero">
<path style=" stroke:none;fill-rule:nonzero;fill:rgb(100%,100%,100%);fill-opacity:0.501961;" d="M 30.253906 19.046875 C 29.386719 19.046875 28.679688 19.753906 28.679688 20.621094 C 28.679688 21.488281 29.386719 22.1875 30.253906 22.1875 C 31.113281 22.1875 31.820312 21.488281 31.820312 20.621094 C 31.820312 19.753906 31.113281 19.046875 30.253906 19.046875 Z M 30.253906 19.046875 "/>
</g>
</g>
<g clip-path="url(#clip5)" clip-rule="nonzero">
<g clip-path="url(#clip6)" clip-rule="nonzero">
<path style=" stroke:none;fill-rule:nonzero;fill:rgb(100%,100%,100%);fill-opacity:0.501961;" d="M 37.511719 14.6875 C 36.648438 14.6875 35.945312 15.394531 35.945312 16.261719 C 35.945312 17.125 36.648438 17.832031 37.511719 17.832031 C 38.378906 17.832031 39.085938 17.125 39.085938 16.261719 C 39.085938 15.394531 38.378906 14.6875 37.511719 14.6875 Z M 37.511719 14.6875 "/>
</g>
</g>
<g clip-path="url(#clip7)" clip-rule="nonzero">
<g clip-path="url(#clip8)" clip-rule="nonzero">
<path style=" stroke:none;fill-rule:nonzero;fill:rgb(100%,100%,100%);fill-opacity:0.501961;" d="M 44.78125 10.332031 C 43.914062 10.332031 43.207031 11.035156 43.207031 11.898438 C 43.207031 12.765625 43.914062 13.472656 44.78125 13.472656 C 45.648438 13.472656 46.351562 12.765625 46.351562 11.898438 C 46.351562 11.035156 45.648438 10.332031 44.78125 10.332031 Z M 44.78125 10.332031 "/>
</g>
</g>
<g clip-path="url(#clip9)" clip-rule="nonzero">
<g clip-path="url(#clip10)" clip-rule="nonzero">
<path style=" stroke:none;fill-rule:nonzero;fill:rgb(100%,100%,100%);fill-opacity:0.501961;" d="M 22.988281 5.972656 C 22.121094 5.972656 21.414062 6.671875 21.414062 7.539062 C 21.414062 8.40625 22.121094 9.113281 22.988281 9.113281 C 23.851562 9.113281 24.558594 8.40625 24.558594 7.539062 C 24.558594 6.671875 23.851562 5.972656 22.988281 5.972656 Z M 22.988281 5.972656 "/>
</g>
</g>
<g clip-path="url(#clip11)" clip-rule="nonzero">
<g clip-path="url(#clip12)" clip-rule="nonzero">
<path style=" stroke:none;fill-rule:nonzero;fill:rgb(100%,100%,100%);fill-opacity:0.501961;" d="M 30.253906 1.613281 C 29.386719 1.613281 28.679688 2.320312 28.679688 3.1875 C 28.679688 4.054688 29.386719 4.753906 30.253906 4.753906 C 31.113281 4.753906 31.820312 4.054688 31.820312 3.1875 C 31.820312 2.320312 31.121094 1.613281 30.253906 1.613281 Z M 30.253906 1.613281 "/>
</g>
</g>
<g clip-path="url(#clip13)" clip-rule="nonzero">
<g clip-path="url(#clip14)" clip-rule="nonzero">
<path style=" stroke:none;fill-rule:nonzero;fill:rgb(100%,100%,100%);fill-opacity:0.501961;" d="M 30.253906 10.332031 C 29.386719 10.332031 28.679688 11.035156 28.679688 11.898438 C 28.679688 12.765625 29.386719 13.472656 30.253906 13.472656 C 31.113281 13.472656 31.820312 12.765625 31.820312 11.898438 C 31.820312 11.035156 31.113281 10.332031 30.253906 10.332031 Z M 30.253906 10.332031 "/>
</g>
</g>
<g clip-path="url(#clip15)" clip-rule="nonzero">
<g clip-path="url(#clip16)" clip-rule="nonzero">
<path style=" stroke:none;fill-rule:nonzero;fill:rgb(100%,100%,100%);fill-opacity:0.501961;" d="M 37.511719 5.972656 C 36.648438 5.972656 35.945312 6.671875 35.945312 7.539062 C 35.945312 8.40625 36.648438 9.113281 37.511719 9.113281 C 38.378906 9.113281 39.085938 8.40625 39.085938 7.539062 C 39.085938 6.671875 38.378906 5.972656 37.511719 5.972656 Z M 37.511719 5.972656 "/>
</g>
</g>
<g clip-path="url(#clip17)" clip-rule="nonzero">
<g clip-path="url(#clip18)" clip-rule="nonzero">
<path style=" stroke:none;fill-rule:nonzero;fill:rgb(100%,100%,100%);fill-opacity:0.501961;" d="M 37.511719 23.40625 C 36.648438 23.40625 35.945312 24.113281 35.945312 24.980469 C 35.945312 25.847656 36.648438 26.546875 37.511719 26.546875 C 38.378906 26.546875 39.085938 25.847656 39.085938 24.980469 C 39.085938 24.113281 38.378906 23.40625 37.511719 23.40625 Z M 37.511719 23.40625 "/>
</g>
</g>
<g clip-path="url(#clip19)" clip-rule="nonzero">
<g clip-path="url(#clip20)" clip-rule="nonzero">
<path style=" stroke:none;fill-rule:nonzero;fill:rgb(100%,100%,100%);fill-opacity:0.501961;" d="M 44.78125 19.046875 C 43.914062 19.046875 43.207031 19.753906 43.207031 20.621094 C 43.207031 21.488281 43.914062 22.1875 44.78125 22.1875 C 45.648438 22.1875 46.351562 21.488281 46.351562 20.621094 C 46.351562 19.753906 45.648438 19.046875 44.78125 19.046875 Z M 44.78125 19.046875 "/>
</g>
</g>
<g clip-path="url(#clip21)" clip-rule="nonzero">
<g clip-path="url(#clip22)" clip-rule="nonzero">
<path style=" stroke:none;fill-rule:nonzero;fill:rgb(100%,100%,100%);fill-opacity:0.501961;" d="M 37.511719 32.125 C 36.648438 32.125 35.945312 32.828125 35.945312 33.691406 C 35.945312 34.558594 36.648438 35.265625 37.511719 35.265625 C 38.378906 35.265625 39.085938 34.558594 39.085938 33.691406 C 39.085938 32.828125 38.378906 32.125 37.511719 32.125 Z M 37.511719 32.125 "/>
</g>
</g>
<g clip-path="url(#clip23)" clip-rule="nonzero">
<g clip-path="url(#clip24)" clip-rule="nonzero">
<path style=" stroke:none;fill-rule:nonzero;fill:rgb(100%,100%,100%);fill-opacity:0.501961;" d="M 44.78125 27.765625 C 43.914062 27.765625 43.207031 28.464844 43.207031 29.332031 C 43.207031 30.199219 43.914062 30.90625 44.78125 30.90625 C 45.648438 30.90625 46.351562 30.199219 46.351562 29.332031 C 46.351562 28.464844 45.648438 27.765625 44.78125 27.765625 Z M 44.78125 27.765625 "/>
</g>
</g>
<g clip-path="url(#clip25)" clip-rule="nonzero">
<g clip-path="url(#clip26)" clip-rule="nonzero">
<path style=" stroke:none;fill-rule:nonzero;fill:rgb(100%,100%,100%);fill-opacity:0.501961;" d="M 30.253906 36.480469 C 29.386719 36.480469 28.679688 37.1875 28.679688 38.054688 C 28.679688 38.921875 29.386719 39.625 30.253906 39.625 C 31.113281 39.625 31.820312 38.921875 31.820312 38.054688 C 31.820312 37.1875 31.113281 36.480469 30.253906 36.480469 Z M 30.253906 36.480469 "/>
</g>
</g>
<g clip-path="url(#clip27)" clip-rule="nonzero">
<g clip-path="url(#clip28)" clip-rule="nonzero">
<path style=" stroke:none;fill-rule:nonzero;fill:rgb(100%,100%,100%);fill-opacity:0.501961;" d="M 30.253906 27.765625 C 29.386719 27.765625 28.679688 28.464844 28.679688 29.332031 C 28.679688 30.199219 29.386719 30.90625 30.253906 30.90625 C 31.113281 30.90625 31.820312 30.199219 31.820312 29.332031 C 31.820312 28.464844 31.113281 27.765625 30.253906 27.765625 Z M 30.253906 27.765625 "/>
</g>
</g>
<g clip-path="url(#clip29)" clip-rule="nonzero">
<g clip-path="url(#clip30)" clip-rule="nonzero">
<path style=" stroke:none;fill-rule:nonzero;fill:rgb(100%,100%,100%);fill-opacity:0.501961;" d="M 22.988281 14.6875 C 22.121094 14.6875 21.414062 15.394531 21.414062 16.261719 C 21.414062 17.125 22.121094 17.832031 22.988281 17.832031 C 23.851562 17.832031 24.558594 17.125 24.558594 16.261719 C 24.558594 15.394531 23.851562 14.6875 22.988281 14.6875 Z M 22.988281 14.6875 "/>
</g>
</g>
<g clip-path="url(#clip31)" clip-rule="nonzero">
<g clip-path="url(#clip32)" clip-rule="nonzero">
<path style=" stroke:none;fill-rule:nonzero;fill:rgb(100%,100%,100%);fill-opacity:0.501961;" d="M 22.988281 32.125 C 22.121094 32.125 21.414062 32.828125 21.414062 33.691406 C 21.414062 34.558594 22.121094 35.265625 22.988281 35.265625 C 23.851562 35.265625 24.558594 34.558594 24.558594 33.691406 C 24.558594 32.828125 23.851562 32.125 22.988281 32.125 Z M 22.988281 32.125 "/>
</g>
</g>
<g clip-path="url(#clip33)" clip-rule="nonzero">
<g clip-path="url(#clip34)" clip-rule="nonzero">
<path style=" stroke:none;fill-rule:nonzero;fill:rgb(100%,100%,100%);fill-opacity:0.501961;" d="M 22.988281 23.40625 C 22.121094 23.40625 21.414062 24.113281 21.414062 24.980469 C 21.414062 25.847656 22.121094 26.546875 22.988281 26.546875 C 23.851562 26.546875 24.558594 25.847656 24.558594 24.980469 C 24.558594 24.113281 23.851562 23.40625 22.988281 23.40625 Z M 22.988281 23.40625 "/>
</g>
</g>
<g clip-path="url(#clip35)" clip-rule="nonzero">
<g clip-path="url(#clip36)" clip-rule="nonzero">
<path style=" stroke:none;fill-rule:nonzero;fill:rgb(100%,100%,100%);fill-opacity:0.501961;" d="M 15.71875 10.332031 C 14.851562 10.332031 14.152344 11.035156 14.152344 11.898438 C 14.152344 12.765625 14.851562 13.472656 15.71875 13.472656 C 16.585938 13.472656 17.292969 12.765625 17.292969 11.898438 C 17.292969 11.035156 16.585938 10.332031 15.71875 10.332031 Z M 15.71875 10.332031 "/>
</g>
</g>
<g clip-path="url(#clip37)" clip-rule="nonzero">
<g clip-path="url(#clip38)" clip-rule="nonzero">
<path style=" stroke:none;fill-rule:nonzero;fill:rgb(100%,100%,100%);fill-opacity:0.501961;" d="M 15.71875 27.765625 C 14.851562 27.765625 14.152344 28.464844 14.152344 29.332031 C 14.152344 30.199219 14.851562 30.90625 15.71875 30.90625 C 16.585938 30.90625 17.292969 30.199219 17.292969 29.332031 C 17.292969 28.464844 16.585938 27.765625 15.71875 27.765625 Z M 15.71875 27.765625 "/>
</g>
</g>
<g clip-path="url(#clip39)" clip-rule="nonzero">
<g clip-path="url(#clip40)" clip-rule="nonzero">
<path style=" stroke:none;fill-rule:nonzero;fill:rgb(100%,100%,100%);fill-opacity:0.501961;" d="M 15.71875 19.046875 C 14.851562 19.046875 14.152344 19.753906 14.152344 20.621094 C 14.152344 21.488281 14.851562 22.1875 15.71875 22.1875 C 16.585938 22.1875 17.292969 21.488281 17.292969 20.621094 C 17.292969 19.753906 16.585938 19.046875 15.71875 19.046875 Z M 15.71875 19.046875 "/>
</g>
</g>
<g clip-path="url(#clip41)" clip-rule="nonzero">
<g clip-path="url(#clip42)" clip-rule="nonzero">
<path style=" stroke:none;fill-rule:nonzero;fill:rgb(100%,100%,100%);fill-opacity:0.501961;" d="M 192.699219 6.734375 C 191.914062 6.734375 191.265625 7.375 191.265625 8.160156 C 191.265625 8.945312 191.914062 9.585938 192.699219 9.585938 C 193.488281 9.585938 194.125 8.945312 194.125 8.160156 C 194.125 7.375 193.488281 6.734375 192.699219 6.734375 Z M 192.699219 6.734375 "/>
</g>
</g>
<g clip-path="url(#clip43)" clip-rule="nonzero">
<g clip-path="url(#clip44)" clip-rule="nonzero">
<path style=" stroke:none;fill-rule:nonzero;fill:rgb(100%,100%,100%);fill-opacity:0.501961;" d="M 225.808594 6.734375 C 225.011719 6.734375 224.375 7.375 224.375 8.160156 C 224.375 8.945312 225.011719 9.585938 225.808594 9.585938 C 226.59375 9.585938 227.234375 8.945312 227.234375 8.160156 C 227.234375 7.375 226.59375 6.734375 225.808594 6.734375 Z M 225.808594 6.734375 "/>
</g>
</g>
<g clip-path="url(#clip45)" clip-rule="nonzero">
<g clip-path="url(#clip46)" clip-rule="nonzero">
<path style=" stroke:none;fill-rule:nonzero;fill:rgb(100%,100%,100%);fill-opacity:0.501961;" d="M 218.308594 30.375 C 217.519531 30.375 216.878906 31.007812 216.878906 31.792969 C 216.878906 32.578125 217.519531 33.214844 218.308594 33.214844 C 219.085938 33.214844 219.726562 32.578125 219.726562 31.792969 C 219.726562 31.007812 219.085938 30.375 218.308594 30.375 Z M 218.308594 30.375 "/>
</g>
</g>
</g>
</svg>
