<svg width="395.538452" height="60.000000" viewBox="0 0 395.538 60" fill="none" xmlns="http://www.w3.org/2000/svg" xmlns:xlink="http://www.w3.org/1999/xlink">
	<desc>
			Created with Pixso.
	</desc>
	<defs>
		<clipPath id="clip2_334">
			<rect rx="-0.500000" width="394.538452" height="59.000000" transform="translate(0.500000 0.500000)" fill="white" fill-opacity="0"/>
		</clipPath>
	</defs>
	<rect rx="-0.500000" width="394.538452" height="59.000000" transform="translate(0.500000 0.500000)" fill="#FFFFFF" fill-opacity="0"/>
	<g clip-path="url(#clip2_334)">
		<path d="M106.28 40.63L106.28 30.98C106.28 25.98 102.24 21.94 97.18 21.94L96.79 21.94C94.83 21.94 92.86 22.62 91.91 23.8L91.91 12.35C91.91 10.94 90.84 10.21 89.77 10.21C88.71 10.21 87.64 10.94 87.64 12.35L87.64 47.65C87.64 49 88.71 49.67 89.77 49.67C90.73 49.67 91.68 49.11 91.85 47.99C92.64 48.77 94.26 49.67 96.68 49.67L97.18 49.67C102.18 49.67 106.28 45.63 106.28 40.63ZM102.01 40.63C102.01 43.27 99.88 45.41 97.18 45.41L96.68 45.41C94.15 45.41 91.91 43.72 91.91 40.97L91.91 30.53C91.91 27.95 94.15 26.21 96.68 26.21L97.18 26.21C99.88 26.21 102.01 28.34 102.01 30.98L102.01 40.63ZM124.18 47.54C124.18 46.47 123.51 45.41 122.05 45.41C120.31 45.35 118.96 44 118.96 42.26L118.96 12.35C118.96 10.94 117.9 10.21 116.83 10.21C115.76 10.21 114.7 10.94 114.7 12.35L114.7 42.26C114.7 46.36 117.95 49.67 122.05 49.67C123.51 49.67 124.18 48.6 124.18 47.54ZM148.65 40.63L148.65 30.98C148.65 25.98 144.61 21.94 139.62 21.94L139.06 21.94C134.06 21.94 130.02 25.98 130.02 30.98L130.02 40.63C130.02 45.63 134.06 49.67 139.06 49.67L139.62 49.67C144.61 49.67 148.65 45.63 148.65 40.63ZM144.39 40.63C144.39 43.27 142.25 45.41 139.62 45.41L139.11 45.41C136.42 45.41 134.28 43.27 134.28 40.63L134.28 30.98C134.28 28.34 136.42 26.21 139.06 26.21L139.62 26.21C142.25 26.21 144.39 28.34 144.39 30.98L144.39 40.63ZM174.53 40.63C174.53 39.17 173.46 38.45 172.39 38.45C171.39 38.45 170.32 39.17 170.26 40.63C170.15 43.27 168.13 45.41 165.49 45.41L164.99 45.41C162.29 45.41 160.16 43.27 160.16 40.63L160.16 30.98C160.16 28.34 162.29 26.21 164.93 26.21L165.49 26.21C168.13 26.21 170.15 28.17 170.26 31.04C170.32 32.44 171.38 33.11 172.39 33.11C173.46 33.11 174.53 32.38 174.53 30.98C174.53 25.98 170.43 21.94 165.49 21.94L164.93 21.94C159.99 21.94 155.89 25.93 155.89 30.98L155.89 40.63C155.89 45.63 159.93 49.67 164.93 49.67L165.49 49.67C170.49 49.67 174.53 45.63 174.53 40.63ZM201.41 47.54C201.41 47.2 201.36 46.81 201.13 46.47L193.44 33L200.4 25.59C200.85 25.14 201.02 24.64 201.02 24.13C201.02 23.01 200.07 21.94 198.83 21.94C198.33 21.94 197.76 22.17 197.32 22.67L186.65 34.01L186.65 12.35C186.65 10.94 185.58 10.21 184.52 10.21C183.45 10.21 182.38 10.94 182.38 12.35L182.38 47.54C182.38 48.94 183.45 49.67 184.52 49.67C185.58 49.67 186.65 48.94 186.65 47.54L186.65 40.3L190.41 36.26L197.43 48.55C197.88 49.33 198.55 49.67 199.22 49.67C200.52 49.67 201.41 48.66 201.41 47.54ZM225.66 40.63C225.66 39.17 224.59 38.45 223.53 38.45C222.52 38.45 221.45 39.17 221.39 40.63C221.28 43.27 219.26 45.41 216.62 45.41L216.12 45.41C213.42 45.41 211.29 43.27 211.29 40.63L211.29 30.98C211.29 28.34 213.42 26.21 216.06 26.21L216.62 26.21C219.26 26.21 221.28 28.17 221.39 31.04C221.45 32.44 222.52 33.11 223.53 33.11C224.59 33.11 225.66 32.38 225.66 30.98C225.66 25.98 221.56 21.94 216.62 21.94L216.06 21.94C211.12 21.94 207.03 25.93 207.03 30.98L207.03 40.63C207.03 45.63 211.07 49.67 216.06 49.67L216.62 49.67C221.62 49.67 225.66 45.63 225.66 40.63ZM252.15 47.54L252.15 30.98C252.15 25.98 248.11 21.94 243.11 21.94L242.67 21.94C240.7 21.94 238.74 22.62 237.78 23.63L237.78 12.35C237.78 10.94 236.72 10.21 235.65 10.21C234.58 10.21 233.52 10.94 233.52 12.35L233.52 47.54C233.52 48.94 234.58 49.67 235.65 49.67C236.72 49.67 237.78 48.94 237.78 47.54L237.78 30.7C237.78 27.78 240.31 26.21 242.89 26.21C245.36 26.21 247.89 27.72 247.89 30.98L247.89 47.54C247.89 48.94 248.95 49.67 250.02 49.67C251.09 49.67 252.15 48.94 252.15 47.54ZM280.22 47.48C280.22 46.58 279.65 45.69 278.42 45.46C277.41 45.29 276.96 44.62 276.96 43.61L276.96 30.59C276.96 25.76 273.14 21.94 268.15 21.94L267.75 21.94C264.78 21.94 261.19 23.12 259.39 27.16C259.22 27.5 259.17 27.84 259.17 28.17C259.17 29.35 260.23 30.14 261.3 30.14C262.03 30.14 262.76 29.8 263.21 29.01C264.28 27.16 265.45 26.21 267.76 26.21L268.15 26.21C270.62 26.21 272.69 27.44 272.69 30.75C272.69 31.04 272.69 31.48 272.53 31.71C271.18 33.62 258.72 32.05 258.33 40.91L258.33 41.59C258.33 46.81 262.82 49.67 267.36 49.67L267.87 49.67C270.17 49.67 272.3 48.83 273.93 47.43C274.66 48.49 275.84 49.33 277.75 49.61C277.86 49.67 278.03 49.67 278.14 49.67C279.49 49.67 280.22 48.6 280.22 47.48ZM272.69 40.63C272.69 43.27 270.51 45.41 267.87 45.41L267.36 45.41C264.5 45.41 262.59 43.89 262.59 41.48L262.59 41.03C262.76 37.1 268.54 37.32 272.69 36.2L272.69 40.63ZM291.22 47.54L291.22 24.08C291.22 22.67 290.15 21.94 289.08 21.94C288.02 21.94 286.95 22.67 286.95 24.08L286.95 47.54C286.95 48.94 288.02 49.67 289.08 49.67C290.15 49.67 291.22 48.94 291.22 47.54ZM318.83 47.54L318.83 30.98C318.83 24.81 314.62 21.94 309.85 21.94L309.35 21.94C307.38 21.94 305.53 22.62 304.52 23.63C304.29 22.5 303.34 21.94 302.39 21.94C301.26 21.94 300.2 22.73 300.2 24.08L300.2 47.54C300.2 48.94 301.26 49.67 302.33 49.67C303.4 49.67 304.46 48.94 304.46 47.54L304.46 30.98C304.46 28.34 306.65 26.21 309.29 26.21L309.79 26.21C312.49 26.21 314.62 28.34 314.62 30.98L314.62 47.54C314.62 48.94 315.69 49.67 316.75 49.67C317.82 49.67 318.83 48.94 318.83 47.54ZM340.86 47.54L340.86 24.08C340.86 22.67 339.79 21.94 338.72 21.94C337.66 21.94 336.59 22.67 336.59 24.08L336.59 47.54C336.59 48.94 337.66 49.67 338.72 49.67C339.79 49.67 340.86 48.94 340.86 47.54ZM367.85 40.63L367.85 30.98C367.85 25.98 363.81 21.94 358.82 21.94L358.26 21.94C353.26 21.94 349.22 25.98 349.22 30.98L349.22 40.63C349.22 45.63 353.26 49.67 358.26 49.67L358.82 49.67C363.81 49.67 367.85 45.63 367.85 40.63ZM363.59 40.63C363.59 43.27 361.46 45.41 358.82 45.41L358.31 45.41C355.62 45.41 353.49 43.27 353.49 40.63L353.49 30.98C353.49 28.34 355.62 26.21 358.26 26.21L358.82 26.21C361.46 26.21 363.59 28.34 363.59 30.98L363.59 40.63Z" fill="#FFFFFF" fill-opacity="0.500000" fill-rule="nonzero"/>
		<path d="M45.38 28.57C44.08 28.57 43.02 29.63 43.02 30.93C43.02 32.23 44.08 33.28 45.38 33.28C46.67 33.28 47.73 32.23 47.73 30.93C47.73 29.63 46.67 28.57 45.38 28.57Z" fill="#FFFFFF" fill-opacity="0.500000" fill-rule="nonzero"/>
		<path d="M56.27 22.03C54.97 22.03 53.92 23.09 53.92 24.39C53.92 25.69 54.97 26.75 56.27 26.75C57.57 26.75 58.63 25.69 58.63 24.39C58.63 23.09 57.57 22.03 56.27 22.03Z" fill="#FFFFFF" fill-opacity="0.500000" fill-rule="nonzero"/>
		<path d="M67.17 15.5C65.87 15.5 64.81 16.55 64.81 17.85C64.81 19.15 65.87 20.21 67.17 20.21C68.47 20.21 69.53 19.15 69.53 17.85C69.53 16.55 68.47 15.5 67.17 15.5Z" fill="#FFFFFF" fill-opacity="0.500000" fill-rule="nonzero"/>
		<path d="M34.48 8.96C33.18 8.96 32.12 10.01 32.12 11.31C32.12 12.61 33.18 13.67 34.48 13.67C35.78 13.67 36.84 12.61 36.84 11.31C36.84 10.01 35.78 8.96 34.48 8.96Z" fill="#FFFFFF" fill-opacity="0.500000" fill-rule="nonzero"/>
		<path d="M45.38 2.42C44.08 2.42 43.02 3.48 43.02 4.78C43.02 6.08 44.08 7.13 45.38 7.13C46.67 7.13 47.73 6.08 47.73 4.78C47.73 3.48 46.68 2.42 45.38 2.42Z" fill="#FFFFFF" fill-opacity="0.500000" fill-rule="nonzero"/>
		<path d="M45.38 15.5C44.08 15.5 43.02 16.55 43.02 17.85C43.02 19.15 44.08 20.21 45.38 20.21C46.67 20.21 47.73 19.15 47.73 17.85C47.73 16.55 46.67 15.5 45.38 15.5Z" fill="#FFFFFF" fill-opacity="0.500000" fill-rule="nonzero"/>
		<path d="M56.27 8.96C54.97 8.96 53.92 10.01 53.92 11.31C53.92 12.61 54.97 13.67 56.27 13.67C57.57 13.67 58.63 12.61 58.63 11.31C58.63 10.01 57.57 8.96 56.27 8.96Z" fill="#FFFFFF" fill-opacity="0.500000" fill-rule="nonzero"/>
		<path d="M56.27 35.11C54.97 35.11 53.92 36.17 53.92 37.47C53.92 38.77 54.97 39.82 56.27 39.82C57.57 39.82 58.63 38.77 58.63 37.47C58.63 36.17 57.57 35.11 56.27 35.11Z" fill="#FFFFFF" fill-opacity="0.500000" fill-rule="nonzero"/>
		<path d="M67.17 28.57C65.87 28.57 64.81 29.63 64.81 30.93C64.81 32.23 65.87 33.28 67.17 33.28C68.47 33.28 69.53 32.23 69.53 30.93C69.53 29.63 68.47 28.57 67.17 28.57Z" fill="#FFFFFF" fill-opacity="0.500000" fill-rule="nonzero"/>
		<path d="M56.27 48.19C54.97 48.19 53.92 49.24 53.92 50.54C53.92 51.84 54.97 52.9 56.27 52.9C57.57 52.9 58.63 51.84 58.63 50.54C58.63 49.24 57.57 48.19 56.27 48.19Z" fill="#FFFFFF" fill-opacity="0.500000" fill-rule="nonzero"/>
		<path d="M67.17 41.65C65.87 41.65 64.81 42.7 64.81 44C64.81 45.3 65.87 46.36 67.17 46.36C68.47 46.36 69.53 45.3 69.53 44C69.53 42.7 68.47 41.65 67.17 41.65Z" fill="#FFFFFF" fill-opacity="0.500000" fill-rule="nonzero"/>
		<path d="M45.38 54.72C44.08 54.72 43.02 55.78 43.02 57.08C43.02 58.38 44.08 59.44 45.38 59.44C46.67 59.44 47.73 58.38 47.73 57.08C47.73 55.78 46.67 54.72 45.38 54.72Z" fill="#FFFFFF" fill-opacity="0.500000" fill-rule="nonzero"/>
		<path d="M45.38 41.65C44.08 41.65 43.02 42.7 43.02 44C43.02 45.3 44.08 46.36 45.38 46.36C46.67 46.36 47.73 45.3 47.73 44C47.73 42.7 46.67 41.65 45.38 41.65Z" fill="#FFFFFF" fill-opacity="0.500000" fill-rule="nonzero"/>
		<path d="M34.48 22.03C33.18 22.03 32.12 23.09 32.12 24.39C32.12 25.69 33.18 26.75 34.48 26.75C35.78 26.75 36.84 25.69 36.84 24.39C36.84 23.09 35.78 22.03 34.48 22.03Z" fill="#FFFFFF" fill-opacity="0.500000" fill-rule="nonzero"/>
		<path d="M34.48 48.19C33.18 48.19 32.12 49.24 32.12 50.54C32.12 51.84 33.18 52.9 34.48 52.9C35.78 52.9 36.84 51.84 36.84 50.54C36.84 49.24 35.78 48.19 34.48 48.19Z" fill="#FFFFFF" fill-opacity="0.500000" fill-rule="nonzero"/>
		<path d="M34.48 35.11C33.18 35.11 32.12 36.17 32.12 37.47C32.12 38.77 33.18 39.82 34.48 39.82C35.78 39.82 36.84 38.77 36.84 37.47C36.84 36.17 35.78 35.11 34.48 35.11Z" fill="#FFFFFF" fill-opacity="0.500000" fill-rule="nonzero"/>
		<path d="M23.58 15.5C22.28 15.5 21.23 16.55 21.23 17.85C21.23 19.15 22.28 20.21 23.58 20.21C24.88 20.21 25.94 19.15 25.94 17.85C25.94 16.55 24.88 15.5 23.58 15.5Z" fill="#FFFFFF" fill-opacity="0.500000" fill-rule="nonzero"/>
		<path d="M23.58 41.65C22.28 41.65 21.23 42.7 21.23 44C21.23 45.3 22.28 46.36 23.58 46.36C24.88 46.36 25.94 45.3 25.94 44C25.94 42.7 24.88 41.65 23.58 41.65Z" fill="#FFFFFF" fill-opacity="0.500000" fill-rule="nonzero"/>
		<path d="M23.58 28.57C22.28 28.57 21.23 29.63 21.23 30.93C21.23 32.23 22.28 33.28 23.58 33.28C24.88 33.28 25.94 32.23 25.94 30.93C25.94 29.63 24.88 28.57 23.58 28.57Z" fill="#FFFFFF" fill-opacity="0.500000" fill-rule="nonzero"/>
		<path d="M289.05 10.1C287.87 10.1 286.9 11.06 286.9 12.24C286.9 13.42 287.87 14.38 289.05 14.38C290.23 14.38 291.19 13.42 291.19 12.24C291.19 11.06 290.23 10.1 289.05 10.1Z" fill="#FFFFFF" fill-opacity="0.500000" fill-rule="nonzero"/>
		<path d="M338.71 10.1C337.52 10.1 336.56 11.06 336.56 12.24C336.56 13.42 337.52 14.38 338.71 14.38C339.89 14.38 340.85 13.42 340.85 12.24C340.85 11.06 339.89 10.1 338.71 10.1Z" fill="#FFFFFF" fill-opacity="0.500000" fill-rule="nonzero"/>
		<path d="M327.46 45.56C326.28 45.56 325.32 46.51 325.32 47.69C325.32 48.87 326.28 49.82 327.46 49.82C328.63 49.82 329.59 48.87 329.59 47.69C329.59 46.51 328.63 45.56 327.46 45.56Z" fill="#FFFFFF" fill-opacity="0.500000" fill-rule="nonzero"/>
	</g>
</svg>
