<?xml version="1.0" encoding="UTF-8"?>
<svg xmlns="http://www.w3.org/2000/svg" xmlns:xlink="http://www.w3.org/1999/xlink" width="119px" height="18px" viewBox="0 0 118 18" version="1.1">
<defs>
<clipPath id="clip1">
  <path d="M 26 3 L 110 3 L 110 15 L 26 15 Z M 26 3 "/>
</clipPath>
<clipPath id="clip2">
  <path d="M 0.296875 0.148438 L 117.566406 0.148438 C 117.648438 0.148438 117.714844 0.21875 117.714844 0.300781 L 117.714844 17.699219 C 117.714844 17.78125 117.648438 17.851562 117.566406 17.851562 L 0.296875 17.851562 C 0.214844 17.851562 0.148438 17.78125 0.148438 17.699219 L 0.148438 0.300781 C 0.148438 0.21875 0.214844 0.148438 0.296875 0.148438 Z M 0.296875 0.148438 "/>
</clipPath>
<clipPath id="clip3">
  <path d="M 12 8 L 15 8 L 15 10 L 12 10 Z M 12 8 "/>
</clipPath>
<clipPath id="clip4">
  <path d="M 0.296875 0.148438 L 117.566406 0.148438 C 117.648438 0.148438 117.714844 0.21875 117.714844 0.300781 L 117.714844 17.699219 C 117.714844 17.78125 117.648438 17.851562 117.566406 17.851562 L 0.296875 17.851562 C 0.214844 17.851562 0.148438 17.78125 0.148438 17.699219 L 0.148438 0.300781 C 0.148438 0.21875 0.214844 0.148438 0.296875 0.148438 Z M 0.296875 0.148438 "/>
</clipPath>
<clipPath id="clip5">
  <path d="M 16 6 L 18 6 L 18 9 L 16 9 Z M 16 6 "/>
</clipPath>
<clipPath id="clip6">
  <path d="M 0.296875 0.148438 L 117.566406 0.148438 C 117.648438 0.148438 117.714844 0.21875 117.714844 0.300781 L 117.714844 17.699219 C 117.714844 17.78125 117.648438 17.851562 117.566406 17.851562 L 0.296875 17.851562 C 0.214844 17.851562 0.148438 17.78125 0.148438 17.699219 L 0.148438 0.300781 C 0.148438 0.21875 0.214844 0.148438 0.296875 0.148438 Z M 0.296875 0.148438 "/>
</clipPath>
<clipPath id="clip7">
  <path d="M 19 4 L 21 4 L 21 7 L 19 7 Z M 19 4 "/>
</clipPath>
<clipPath id="clip8">
  <path d="M 0.296875 0.148438 L 117.566406 0.148438 C 117.648438 0.148438 117.714844 0.21875 117.714844 0.300781 L 117.714844 17.699219 C 117.714844 17.78125 117.648438 17.851562 117.566406 17.851562 L 0.296875 17.851562 C 0.214844 17.851562 0.148438 17.78125 0.148438 17.699219 L 0.148438 0.300781 C 0.148438 0.21875 0.214844 0.148438 0.296875 0.148438 Z M 0.296875 0.148438 "/>
</clipPath>
<clipPath id="clip9">
  <path d="M 9 2 L 11 2 L 11 5 L 9 5 Z M 9 2 "/>
</clipPath>
<clipPath id="clip10">
  <path d="M 0.296875 0.148438 L 117.566406 0.148438 C 117.648438 0.148438 117.714844 0.21875 117.714844 0.300781 L 117.714844 17.699219 C 117.714844 17.78125 117.648438 17.851562 117.566406 17.851562 L 0.296875 17.851562 C 0.214844 17.851562 0.148438 17.78125 0.148438 17.699219 L 0.148438 0.300781 C 0.148438 0.21875 0.214844 0.148438 0.296875 0.148438 Z M 0.296875 0.148438 "/>
</clipPath>
<clipPath id="clip11">
  <path d="M 12 0 L 15 0 L 15 3 L 12 3 Z M 12 0 "/>
</clipPath>
<clipPath id="clip12">
  <path d="M 0.296875 0.148438 L 117.566406 0.148438 C 117.648438 0.148438 117.714844 0.21875 117.714844 0.300781 L 117.714844 17.699219 C 117.714844 17.78125 117.648438 17.851562 117.566406 17.851562 L 0.296875 17.851562 C 0.214844 17.851562 0.148438 17.78125 0.148438 17.699219 L 0.148438 0.300781 C 0.148438 0.21875 0.214844 0.148438 0.296875 0.148438 Z M 0.296875 0.148438 "/>
</clipPath>
<clipPath id="clip13">
  <path d="M 12 4 L 15 4 L 15 7 L 12 7 Z M 12 4 "/>
</clipPath>
<clipPath id="clip14">
  <path d="M 0.296875 0.148438 L 117.566406 0.148438 C 117.648438 0.148438 117.714844 0.21875 117.714844 0.300781 L 117.714844 17.699219 C 117.714844 17.78125 117.648438 17.851562 117.566406 17.851562 L 0.296875 17.851562 C 0.214844 17.851562 0.148438 17.78125 0.148438 17.699219 L 0.148438 0.300781 C 0.148438 0.21875 0.214844 0.148438 0.296875 0.148438 Z M 0.296875 0.148438 "/>
</clipPath>
<clipPath id="clip15">
  <path d="M 16 2 L 18 2 L 18 5 L 16 5 Z M 16 2 "/>
</clipPath>
<clipPath id="clip16">
  <path d="M 0.296875 0.148438 L 117.566406 0.148438 C 117.648438 0.148438 117.714844 0.21875 117.714844 0.300781 L 117.714844 17.699219 C 117.714844 17.78125 117.648438 17.851562 117.566406 17.851562 L 0.296875 17.851562 C 0.214844 17.851562 0.148438 17.78125 0.148438 17.699219 L 0.148438 0.300781 C 0.148438 0.21875 0.214844 0.148438 0.296875 0.148438 Z M 0.296875 0.148438 "/>
</clipPath>
<clipPath id="clip17">
  <path d="M 16 10 L 18 10 L 18 12 L 16 12 Z M 16 10 "/>
</clipPath>
<clipPath id="clip18">
  <path d="M 0.296875 0.148438 L 117.566406 0.148438 C 117.648438 0.148438 117.714844 0.21875 117.714844 0.300781 L 117.714844 17.699219 C 117.714844 17.78125 117.648438 17.851562 117.566406 17.851562 L 0.296875 17.851562 C 0.214844 17.851562 0.148438 17.78125 0.148438 17.699219 L 0.148438 0.300781 C 0.148438 0.21875 0.214844 0.148438 0.296875 0.148438 Z M 0.296875 0.148438 "/>
</clipPath>
<clipPath id="clip19">
  <path d="M 19 8 L 21 8 L 21 10 L 19 10 Z M 19 8 "/>
</clipPath>
<clipPath id="clip20">
  <path d="M 0.296875 0.148438 L 117.566406 0.148438 C 117.648438 0.148438 117.714844 0.21875 117.714844 0.300781 L 117.714844 17.699219 C 117.714844 17.78125 117.648438 17.851562 117.566406 17.851562 L 0.296875 17.851562 C 0.214844 17.851562 0.148438 17.78125 0.148438 17.699219 L 0.148438 0.300781 C 0.148438 0.21875 0.214844 0.148438 0.296875 0.148438 Z M 0.296875 0.148438 "/>
</clipPath>
<clipPath id="clip21">
  <path d="M 16 14 L 18 14 L 18 16 L 16 16 Z M 16 14 "/>
</clipPath>
<clipPath id="clip22">
  <path d="M 0.296875 0.148438 L 117.566406 0.148438 C 117.648438 0.148438 117.714844 0.21875 117.714844 0.300781 L 117.714844 17.699219 C 117.714844 17.78125 117.648438 17.851562 117.566406 17.851562 L 0.296875 17.851562 C 0.214844 17.851562 0.148438 17.78125 0.148438 17.699219 L 0.148438 0.300781 C 0.148438 0.21875 0.214844 0.148438 0.296875 0.148438 Z M 0.296875 0.148438 "/>
</clipPath>
<clipPath id="clip23">
  <path d="M 19 12 L 21 12 L 21 14 L 19 14 Z M 19 12 "/>
</clipPath>
<clipPath id="clip24">
  <path d="M 0.296875 0.148438 L 117.566406 0.148438 C 117.648438 0.148438 117.714844 0.21875 117.714844 0.300781 L 117.714844 17.699219 C 117.714844 17.78125 117.648438 17.851562 117.566406 17.851562 L 0.296875 17.851562 C 0.214844 17.851562 0.148438 17.78125 0.148438 17.699219 L 0.148438 0.300781 C 0.148438 0.21875 0.214844 0.148438 0.296875 0.148438 Z M 0.296875 0.148438 "/>
</clipPath>
<clipPath id="clip25">
  <path d="M 12 16 L 15 16 L 15 18 L 12 18 Z M 12 16 "/>
</clipPath>
<clipPath id="clip26">
  <path d="M 0.296875 0.148438 L 117.566406 0.148438 C 117.648438 0.148438 117.714844 0.21875 117.714844 0.300781 L 117.714844 17.699219 C 117.714844 17.78125 117.648438 17.851562 117.566406 17.851562 L 0.296875 17.851562 C 0.214844 17.851562 0.148438 17.78125 0.148438 17.699219 L 0.148438 0.300781 C 0.148438 0.21875 0.214844 0.148438 0.296875 0.148438 Z M 0.296875 0.148438 "/>
</clipPath>
<clipPath id="clip27">
  <path d="M 12 12 L 15 12 L 15 14 L 12 14 Z M 12 12 "/>
</clipPath>
<clipPath id="clip28">
  <path d="M 0.296875 0.148438 L 117.566406 0.148438 C 117.648438 0.148438 117.714844 0.21875 117.714844 0.300781 L 117.714844 17.699219 C 117.714844 17.78125 117.648438 17.851562 117.566406 17.851562 L 0.296875 17.851562 C 0.214844 17.851562 0.148438 17.78125 0.148438 17.699219 L 0.148438 0.300781 C 0.148438 0.21875 0.214844 0.148438 0.296875 0.148438 Z M 0.296875 0.148438 "/>
</clipPath>
<clipPath id="clip29">
  <path d="M 9 6 L 11 6 L 11 9 L 9 9 Z M 9 6 "/>
</clipPath>
<clipPath id="clip30">
  <path d="M 0.296875 0.148438 L 117.566406 0.148438 C 117.648438 0.148438 117.714844 0.21875 117.714844 0.300781 L 117.714844 17.699219 C 117.714844 17.78125 117.648438 17.851562 117.566406 17.851562 L 0.296875 17.851562 C 0.214844 17.851562 0.148438 17.78125 0.148438 17.699219 L 0.148438 0.300781 C 0.148438 0.21875 0.214844 0.148438 0.296875 0.148438 Z M 0.296875 0.148438 "/>
</clipPath>
<clipPath id="clip31">
  <path d="M 9 14 L 11 14 L 11 16 L 9 16 Z M 9 14 "/>
</clipPath>
<clipPath id="clip32">
  <path d="M 0.296875 0.148438 L 117.566406 0.148438 C 117.648438 0.148438 117.714844 0.21875 117.714844 0.300781 L 117.714844 17.699219 C 117.714844 17.78125 117.648438 17.851562 117.566406 17.851562 L 0.296875 17.851562 C 0.214844 17.851562 0.148438 17.78125 0.148438 17.699219 L 0.148438 0.300781 C 0.148438 0.21875 0.214844 0.148438 0.296875 0.148438 Z M 0.296875 0.148438 "/>
</clipPath>
<clipPath id="clip33">
  <path d="M 9 10 L 11 10 L 11 12 L 9 12 Z M 9 10 "/>
</clipPath>
<clipPath id="clip34">
  <path d="M 0.296875 0.148438 L 117.566406 0.148438 C 117.648438 0.148438 117.714844 0.21875 117.714844 0.300781 L 117.714844 17.699219 C 117.714844 17.78125 117.648438 17.851562 117.566406 17.851562 L 0.296875 17.851562 C 0.214844 17.851562 0.148438 17.78125 0.148438 17.699219 L 0.148438 0.300781 C 0.148438 0.21875 0.214844 0.148438 0.296875 0.148438 Z M 0.296875 0.148438 "/>
</clipPath>
<clipPath id="clip35">
  <path d="M 6 4 L 8 4 L 8 7 L 6 7 Z M 6 4 "/>
</clipPath>
<clipPath id="clip36">
  <path d="M 0.296875 0.148438 L 117.566406 0.148438 C 117.648438 0.148438 117.714844 0.21875 117.714844 0.300781 L 117.714844 17.699219 C 117.714844 17.78125 117.648438 17.851562 117.566406 17.851562 L 0.296875 17.851562 C 0.214844 17.851562 0.148438 17.78125 0.148438 17.699219 L 0.148438 0.300781 C 0.148438 0.21875 0.214844 0.148438 0.296875 0.148438 Z M 0.296875 0.148438 "/>
</clipPath>
<clipPath id="clip37">
  <path d="M 6 12 L 8 12 L 8 14 L 6 14 Z M 6 12 "/>
</clipPath>
<clipPath id="clip38">
  <path d="M 0.296875 0.148438 L 117.566406 0.148438 C 117.648438 0.148438 117.714844 0.21875 117.714844 0.300781 L 117.714844 17.699219 C 117.714844 17.78125 117.648438 17.851562 117.566406 17.851562 L 0.296875 17.851562 C 0.214844 17.851562 0.148438 17.78125 0.148438 17.699219 L 0.148438 0.300781 C 0.148438 0.21875 0.214844 0.148438 0.296875 0.148438 Z M 0.296875 0.148438 "/>
</clipPath>
<clipPath id="clip39">
  <path d="M 6 8 L 8 8 L 8 10 L 6 10 Z M 6 8 "/>
</clipPath>
<clipPath id="clip40">
  <path d="M 0.296875 0.148438 L 117.566406 0.148438 C 117.648438 0.148438 117.714844 0.21875 117.714844 0.300781 L 117.714844 17.699219 C 117.714844 17.78125 117.648438 17.851562 117.566406 17.851562 L 0.296875 17.851562 C 0.214844 17.851562 0.148438 17.78125 0.148438 17.699219 L 0.148438 0.300781 C 0.148438 0.21875 0.214844 0.148438 0.296875 0.148438 Z M 0.296875 0.148438 "/>
</clipPath>
<clipPath id="clip41">
  <path d="M 85 3 L 87 3 L 87 5 L 85 5 Z M 85 3 "/>
</clipPath>
<clipPath id="clip42">
  <path d="M 0.296875 0.148438 L 117.566406 0.148438 C 117.648438 0.148438 117.714844 0.21875 117.714844 0.300781 L 117.714844 17.699219 C 117.714844 17.78125 117.648438 17.851562 117.566406 17.851562 L 0.296875 17.851562 C 0.214844 17.851562 0.148438 17.78125 0.148438 17.699219 L 0.148438 0.300781 C 0.148438 0.21875 0.214844 0.148438 0.296875 0.148438 Z M 0.296875 0.148438 "/>
</clipPath>
<clipPath id="clip43">
  <path d="M 100 3 L 102 3 L 102 5 L 100 5 Z M 100 3 "/>
</clipPath>
<clipPath id="clip44">
  <path d="M 0.296875 0.148438 L 117.566406 0.148438 C 117.648438 0.148438 117.714844 0.21875 117.714844 0.300781 L 117.714844 17.699219 C 117.714844 17.78125 117.648438 17.851562 117.566406 17.851562 L 0.296875 17.851562 C 0.214844 17.851562 0.148438 17.78125 0.148438 17.699219 L 0.148438 0.300781 C 0.148438 0.21875 0.214844 0.148438 0.296875 0.148438 Z M 0.296875 0.148438 "/>
</clipPath>
<clipPath id="clip45">
  <path d="M 96 13 L 99 13 L 99 15 L 96 15 Z M 96 13 "/>
</clipPath>
<clipPath id="clip46">
  <path d="M 0.296875 0.148438 L 117.566406 0.148438 C 117.648438 0.148438 117.714844 0.21875 117.714844 0.300781 L 117.714844 17.699219 C 117.714844 17.78125 117.648438 17.851562 117.566406 17.851562 L 0.296875 17.851562 C 0.214844 17.851562 0.148438 17.78125 0.148438 17.699219 L 0.148438 0.300781 C 0.148438 0.21875 0.214844 0.148438 0.296875 0.148438 Z M 0.296875 0.148438 "/>
</clipPath>
</defs>
<g id="surface1">
<g clip-path="url(#clip1)" clip-rule="nonzero">
<g clip-path="url(#clip2)" clip-rule="nonzero">
<path style=" stroke:none;fill-rule:nonzero;fill:rgb(100%,100%,100%);fill-opacity:0.501961;" d="M 31.667969 12.1875 L 31.667969 9.292969 C 31.667969 7.792969 30.464844 6.582031 28.957031 6.582031 L 28.839844 6.582031 C 28.257812 6.582031 27.671875 6.785156 27.386719 7.140625 L 27.386719 3.703125 C 27.386719 3.28125 27.070312 3.0625 26.75 3.0625 C 26.433594 3.0625 26.113281 3.28125 26.113281 3.703125 L 26.113281 14.296875 C 26.113281 14.699219 26.433594 14.902344 26.75 14.902344 C 27.035156 14.902344 27.320312 14.734375 27.371094 14.398438 C 27.605469 14.632812 28.085938 14.902344 28.808594 14.902344 L 28.957031 14.902344 C 30.449219 14.902344 31.667969 13.6875 31.667969 12.1875 Z M 30.398438 12.1875 C 30.398438 12.980469 29.761719 13.621094 28.957031 13.621094 L 28.808594 13.621094 C 28.054688 13.621094 27.386719 13.117188 27.386719 12.289062 L 27.386719 9.160156 C 27.386719 8.386719 28.054688 7.863281 28.808594 7.863281 L 28.957031 7.863281 C 29.761719 7.863281 30.398438 8.503906 30.398438 9.292969 Z M 37.003906 14.261719 C 37.003906 13.941406 36.804688 13.621094 36.367188 13.621094 C 35.851562 13.605469 35.449219 13.199219 35.449219 12.679688 L 35.449219 3.703125 C 35.449219 3.28125 35.132812 3.0625 34.8125 3.0625 C 34.496094 3.0625 34.179688 3.28125 34.179688 3.703125 L 34.179688 12.679688 C 34.179688 13.90625 35.148438 14.902344 36.367188 14.902344 C 36.804688 14.902344 37.003906 14.578125 37.003906 14.261719 Z M 44.292969 12.1875 L 44.292969 9.292969 C 44.292969 7.792969 43.089844 6.582031 41.605469 6.582031 L 41.4375 6.582031 C 39.945312 6.582031 38.742188 7.792969 38.742188 9.292969 L 38.742188 12.1875 C 38.742188 13.6875 39.945312 14.902344 41.4375 14.902344 L 41.605469 14.902344 C 43.089844 14.902344 44.292969 13.6875 44.292969 12.1875 Z M 43.023438 12.1875 C 43.023438 12.980469 42.386719 13.621094 41.605469 13.621094 L 41.453125 13.621094 C 40.652344 13.621094 40.011719 12.980469 40.011719 12.1875 L 40.011719 9.292969 C 40.011719 8.503906 40.652344 7.863281 41.4375 7.863281 L 41.605469 7.863281 C 42.386719 7.863281 43.023438 8.503906 43.023438 9.292969 Z M 52.007812 12.1875 C 52.007812 11.75 51.6875 11.535156 51.367188 11.535156 C 51.070312 11.535156 50.753906 11.75 50.734375 12.1875 C 50.703125 12.980469 50.097656 13.621094 49.3125 13.621094 L 49.164062 13.621094 C 48.359375 13.621094 47.722656 12.980469 47.722656 12.1875 L 47.722656 9.292969 C 47.722656 8.503906 48.359375 7.863281 49.144531 7.863281 L 49.3125 7.863281 C 50.097656 7.863281 50.703125 8.449219 50.734375 9.3125 C 50.753906 9.730469 51.066406 9.933594 51.367188 9.933594 C 51.6875 9.933594 52.007812 9.714844 52.007812 9.292969 C 52.007812 7.792969 50.785156 6.582031 49.3125 6.582031 L 49.144531 6.582031 C 47.675781 6.582031 46.453125 7.777344 46.453125 9.292969 L 46.453125 12.1875 C 46.453125 13.6875 47.65625 14.902344 49.144531 14.902344 L 49.3125 14.902344 C 50.800781 14.902344 52.007812 13.6875 52.007812 12.1875 Z M 60.015625 14.261719 C 60.015625 14.160156 60 14.042969 59.933594 13.941406 L 57.640625 9.898438 L 59.714844 7.675781 C 59.847656 7.542969 59.898438 7.390625 59.898438 7.238281 C 59.898438 6.902344 59.617188 6.582031 59.246094 6.582031 C 59.097656 6.582031 58.929688 6.652344 58.796875 6.800781 L 55.617188 10.203125 L 55.617188 3.703125 C 55.617188 3.28125 55.300781 3.0625 54.984375 3.0625 C 54.664062 3.0625 54.34375 3.28125 54.34375 3.703125 L 54.34375 14.261719 C 54.34375 14.683594 54.664062 14.902344 54.984375 14.902344 C 55.300781 14.902344 55.617188 14.683594 55.617188 14.261719 L 55.617188 12.089844 L 56.738281 10.878906 L 58.832031 14.566406 C 58.964844 14.800781 59.164062 14.902344 59.363281 14.902344 C 59.75 14.902344 60.015625 14.597656 60.015625 14.261719 Z M 67.242188 12.1875 C 67.242188 11.75 66.921875 11.535156 66.609375 11.535156 C 66.304688 11.535156 65.988281 11.75 65.96875 12.1875 C 65.9375 12.980469 65.335938 13.621094 64.546875 13.621094 L 64.398438 13.621094 C 63.59375 13.621094 62.960938 12.980469 62.960938 12.1875 L 62.960938 9.292969 C 62.960938 8.503906 63.59375 7.863281 64.382812 7.863281 L 64.546875 7.863281 C 65.335938 7.863281 65.9375 8.449219 65.96875 9.3125 C 65.988281 9.730469 66.304688 9.933594 66.609375 9.933594 C 66.921875 9.933594 67.242188 9.714844 67.242188 9.292969 C 67.242188 7.792969 66.019531 6.582031 64.546875 6.582031 L 64.382812 6.582031 C 62.910156 6.582031 61.691406 7.777344 61.691406 9.292969 L 61.691406 12.1875 C 61.691406 13.6875 62.894531 14.902344 64.382812 14.902344 L 64.546875 14.902344 C 66.039062 14.902344 67.242188 13.6875 67.242188 12.1875 Z M 75.136719 14.261719 L 75.136719 9.292969 C 75.136719 7.792969 73.933594 6.582031 72.441406 6.582031 L 72.3125 6.582031 C 71.722656 6.582031 71.140625 6.785156 70.855469 7.089844 L 70.855469 3.703125 C 70.855469 3.28125 70.539062 3.0625 70.21875 3.0625 C 69.898438 3.0625 69.585938 3.28125 69.585938 3.703125 L 69.585938 14.261719 C 69.585938 14.683594 69.898438 14.902344 70.21875 14.902344 C 70.539062 14.902344 70.855469 14.683594 70.855469 14.261719 L 70.855469 9.210938 C 70.855469 8.335938 71.609375 7.863281 72.375 7.863281 C 73.113281 7.863281 73.867188 8.316406 73.867188 9.292969 L 73.867188 14.261719 C 73.867188 14.683594 74.183594 14.902344 74.5 14.902344 C 74.820312 14.902344 75.136719 14.683594 75.136719 14.261719 Z M 83.5 14.242188 C 83.5 13.972656 83.332031 13.707031 82.964844 13.636719 C 82.664062 13.585938 82.527344 13.386719 82.527344 13.082031 L 82.527344 9.175781 C 82.527344 7.726562 81.390625 6.582031 79.902344 6.582031 L 79.785156 6.582031 C 78.898438 6.582031 77.828125 6.9375 77.292969 8.148438 C 77.242188 8.25 77.226562 8.351562 77.226562 8.449219 C 77.226562 8.804688 77.542969 9.042969 77.863281 9.042969 C 78.078125 9.042969 78.296875 8.941406 78.429688 8.703125 C 78.75 8.148438 79.097656 7.863281 79.789062 7.863281 L 79.902344 7.863281 C 80.640625 7.863281 81.257812 8.230469 81.257812 9.226562 C 81.257812 9.3125 81.257812 9.445312 81.207031 9.511719 C 80.804688 10.085938 77.09375 9.613281 76.976562 12.273438 L 76.976562 12.476562 C 76.976562 14.042969 78.316406 14.902344 79.667969 14.902344 L 79.820312 14.902344 C 80.503906 14.902344 81.140625 14.648438 81.625 14.230469 C 81.84375 14.546875 82.195312 14.800781 82.765625 14.882812 C 82.796875 14.902344 82.847656 14.902344 82.878906 14.902344 C 83.28125 14.902344 83.5 14.578125 83.5 14.242188 Z M 81.257812 12.1875 C 81.257812 12.980469 80.605469 13.621094 79.820312 13.621094 L 79.667969 13.621094 C 78.816406 13.621094 78.246094 13.167969 78.246094 12.445312 L 78.246094 12.308594 C 78.296875 11.128906 80.019531 11.195312 81.257812 10.859375 Z M 86.777344 14.261719 L 86.777344 7.222656 C 86.777344 6.800781 86.457031 6.582031 86.140625 6.582031 C 85.824219 6.582031 85.503906 6.800781 85.503906 7.222656 L 85.503906 14.261719 C 85.503906 14.683594 85.824219 14.902344 86.140625 14.902344 C 86.457031 14.902344 86.777344 14.683594 86.777344 14.261719 Z M 95.003906 14.261719 L 95.003906 9.292969 C 95.003906 7.441406 93.75 6.582031 92.328125 6.582031 L 92.179688 6.582031 C 91.59375 6.582031 91.042969 6.785156 90.742188 7.089844 C 90.671875 6.75 90.390625 6.582031 90.105469 6.582031 C 89.769531 6.582031 89.453125 6.820312 89.453125 7.222656 L 89.453125 14.261719 C 89.453125 14.683594 89.769531 14.902344 90.089844 14.902344 C 90.40625 14.902344 90.722656 14.683594 90.722656 14.261719 L 90.722656 9.292969 C 90.722656 8.503906 91.375 7.863281 92.164062 7.863281 L 92.3125 7.863281 C 93.117188 7.863281 93.75 8.503906 93.75 9.292969 L 93.75 14.261719 C 93.75 14.683594 94.070312 14.902344 94.386719 14.902344 C 94.703125 14.902344 95.003906 14.683594 95.003906 14.261719 Z M 101.570312 14.261719 L 101.570312 7.222656 C 101.570312 6.800781 101.25 6.582031 100.933594 6.582031 C 100.617188 6.582031 100.296875 6.800781 100.296875 7.222656 L 100.296875 14.261719 C 100.296875 14.683594 100.617188 14.902344 100.933594 14.902344 C 101.25 14.902344 101.570312 14.683594 101.570312 14.261719 Z M 109.613281 12.1875 L 109.613281 9.292969 C 109.613281 7.792969 108.40625 6.582031 106.921875 6.582031 L 106.753906 6.582031 C 105.265625 6.582031 104.0625 7.792969 104.0625 9.292969 L 104.0625 12.1875 C 104.0625 13.6875 105.265625 14.902344 106.753906 14.902344 L 106.921875 14.902344 C 108.40625 14.902344 109.613281 13.6875 109.613281 12.1875 Z M 108.34375 12.1875 C 108.34375 12.980469 107.707031 13.621094 106.921875 13.621094 L 106.769531 13.621094 C 105.96875 13.621094 105.332031 12.980469 105.332031 12.1875 L 105.332031 9.292969 C 105.332031 8.503906 105.96875 7.863281 106.753906 7.863281 L 106.921875 7.863281 C 107.707031 7.863281 108.34375 8.503906 108.34375 9.292969 Z M 108.34375 12.1875 "/>
</g>
</g>
<g clip-path="url(#clip3)" clip-rule="nonzero">
<g clip-path="url(#clip4)" clip-rule="nonzero">
<path style=" stroke:none;fill-rule:nonzero;fill:rgb(100%,100%,100%);fill-opacity:0.501961;" d="M 13.523438 8.570312 C 13.136719 8.570312 12.820312 8.890625 12.820312 9.277344 C 12.820312 9.667969 13.136719 9.984375 13.523438 9.984375 C 13.90625 9.984375 14.222656 9.667969 14.222656 9.277344 C 14.222656 8.890625 13.90625 8.570312 13.523438 8.570312 Z M 13.523438 8.570312 "/>
</g>
</g>
<g clip-path="url(#clip5)" clip-rule="nonzero">
<g clip-path="url(#clip6)" clip-rule="nonzero">
<path style=" stroke:none;fill-rule:nonzero;fill:rgb(100%,100%,100%);fill-opacity:0.501961;" d="M 16.765625 6.609375 C 16.378906 6.609375 16.066406 6.925781 16.066406 7.316406 C 16.066406 7.707031 16.378906 8.023438 16.765625 8.023438 C 17.15625 8.023438 17.46875 7.707031 17.46875 7.316406 C 17.46875 6.925781 17.15625 6.609375 16.765625 6.609375 Z M 16.765625 6.609375 "/>
</g>
</g>
<g clip-path="url(#clip7)" clip-rule="nonzero">
<g clip-path="url(#clip8)" clip-rule="nonzero">
<path style=" stroke:none;fill-rule:nonzero;fill:rgb(100%,100%,100%);fill-opacity:0.501961;" d="M 20.015625 4.648438 C 19.628906 4.648438 19.3125 4.964844 19.3125 5.355469 C 19.3125 5.746094 19.628906 6.0625 20.015625 6.0625 C 20.402344 6.0625 20.71875 5.746094 20.71875 5.355469 C 20.71875 4.964844 20.402344 4.648438 20.015625 4.648438 Z M 20.015625 4.648438 "/>
</g>
</g>
<g clip-path="url(#clip9)" clip-rule="nonzero">
<g clip-path="url(#clip10)" clip-rule="nonzero">
<path style=" stroke:none;fill-rule:nonzero;fill:rgb(100%,100%,100%);fill-opacity:0.501961;" d="M 10.273438 2.6875 C 9.886719 2.6875 9.570312 3.003906 9.570312 3.394531 C 9.570312 3.78125 9.886719 4.101562 10.273438 4.101562 C 10.660156 4.101562 10.976562 3.78125 10.976562 3.394531 C 10.976562 3.003906 10.660156 2.6875 10.273438 2.6875 Z M 10.273438 2.6875 "/>
</g>
</g>
<g clip-path="url(#clip11)" clip-rule="nonzero">
<g clip-path="url(#clip12)" clip-rule="nonzero">
<path style=" stroke:none;fill-rule:nonzero;fill:rgb(100%,100%,100%);fill-opacity:0.501961;" d="M 13.523438 0.726562 C 13.136719 0.726562 12.820312 1.042969 12.820312 1.433594 C 12.820312 1.824219 13.136719 2.140625 13.523438 2.140625 C 13.90625 2.140625 14.222656 1.824219 14.222656 1.433594 C 14.222656 1.042969 13.910156 0.726562 13.523438 0.726562 Z M 13.523438 0.726562 "/>
</g>
</g>
<g clip-path="url(#clip13)" clip-rule="nonzero">
<g clip-path="url(#clip14)" clip-rule="nonzero">
<path style=" stroke:none;fill-rule:nonzero;fill:rgb(100%,100%,100%);fill-opacity:0.501961;" d="M 13.523438 4.648438 C 13.136719 4.648438 12.820312 4.964844 12.820312 5.355469 C 12.820312 5.746094 13.136719 6.0625 13.523438 6.0625 C 13.90625 6.0625 14.222656 5.746094 14.222656 5.355469 C 14.222656 4.964844 13.90625 4.648438 13.523438 4.648438 Z M 13.523438 4.648438 "/>
</g>
</g>
<g clip-path="url(#clip15)" clip-rule="nonzero">
<g clip-path="url(#clip16)" clip-rule="nonzero">
<path style=" stroke:none;fill-rule:nonzero;fill:rgb(100%,100%,100%);fill-opacity:0.501961;" d="M 16.765625 2.6875 C 16.378906 2.6875 16.066406 3.003906 16.066406 3.394531 C 16.066406 3.78125 16.378906 4.101562 16.765625 4.101562 C 17.15625 4.101562 17.46875 3.78125 17.46875 3.394531 C 17.46875 3.003906 17.15625 2.6875 16.765625 2.6875 Z M 16.765625 2.6875 "/>
</g>
</g>
<g clip-path="url(#clip17)" clip-rule="nonzero">
<g clip-path="url(#clip18)" clip-rule="nonzero">
<path style=" stroke:none;fill-rule:nonzero;fill:rgb(100%,100%,100%);fill-opacity:0.501961;" d="M 16.765625 10.53125 C 16.378906 10.53125 16.066406 10.851562 16.066406 11.242188 C 16.066406 11.632812 16.378906 11.945312 16.765625 11.945312 C 17.15625 11.945312 17.46875 11.632812 17.46875 11.242188 C 17.46875 10.851562 17.15625 10.53125 16.765625 10.53125 Z M 16.765625 10.53125 "/>
</g>
</g>
<g clip-path="url(#clip19)" clip-rule="nonzero">
<g clip-path="url(#clip20)" clip-rule="nonzero">
<path style=" stroke:none;fill-rule:nonzero;fill:rgb(100%,100%,100%);fill-opacity:0.501961;" d="M 20.015625 8.570312 C 19.628906 8.570312 19.3125 8.890625 19.3125 9.277344 C 19.3125 9.667969 19.628906 9.984375 20.015625 9.984375 C 20.402344 9.984375 20.71875 9.667969 20.71875 9.277344 C 20.71875 8.890625 20.402344 8.570312 20.015625 8.570312 Z M 20.015625 8.570312 "/>
</g>
</g>
<g clip-path="url(#clip21)" clip-rule="nonzero">
<g clip-path="url(#clip22)" clip-rule="nonzero">
<path style=" stroke:none;fill-rule:nonzero;fill:rgb(100%,100%,100%);fill-opacity:0.501961;" d="M 16.765625 14.457031 C 16.378906 14.457031 16.066406 14.773438 16.066406 15.160156 C 16.066406 15.550781 16.378906 15.871094 16.765625 15.871094 C 17.15625 15.871094 17.46875 15.550781 17.46875 15.160156 C 17.46875 14.773438 17.15625 14.457031 16.765625 14.457031 Z M 16.765625 14.457031 "/>
</g>
</g>
<g clip-path="url(#clip23)" clip-rule="nonzero">
<g clip-path="url(#clip24)" clip-rule="nonzero">
<path style=" stroke:none;fill-rule:nonzero;fill:rgb(100%,100%,100%);fill-opacity:0.501961;" d="M 20.015625 12.496094 C 19.628906 12.496094 19.3125 12.808594 19.3125 13.199219 C 19.3125 13.589844 19.628906 13.90625 20.015625 13.90625 C 20.402344 13.90625 20.71875 13.589844 20.71875 13.199219 C 20.71875 12.808594 20.402344 12.496094 20.015625 12.496094 Z M 20.015625 12.496094 "/>
</g>
</g>
<g clip-path="url(#clip25)" clip-rule="nonzero">
<g clip-path="url(#clip26)" clip-rule="nonzero">
<path style=" stroke:none;fill-rule:nonzero;fill:rgb(100%,100%,100%);fill-opacity:0.501961;" d="M 13.523438 16.414062 C 13.136719 16.414062 12.820312 16.734375 12.820312 17.125 C 12.820312 17.515625 13.136719 17.832031 13.523438 17.832031 C 13.90625 17.832031 14.222656 17.515625 14.222656 17.125 C 14.222656 16.734375 13.90625 16.414062 13.523438 16.414062 Z M 13.523438 16.414062 "/>
</g>
</g>
<g clip-path="url(#clip27)" clip-rule="nonzero">
<g clip-path="url(#clip28)" clip-rule="nonzero">
<path style=" stroke:none;fill-rule:nonzero;fill:rgb(100%,100%,100%);fill-opacity:0.501961;" d="M 13.523438 12.496094 C 13.136719 12.496094 12.820312 12.808594 12.820312 13.199219 C 12.820312 13.589844 13.136719 13.90625 13.523438 13.90625 C 13.90625 13.90625 14.222656 13.589844 14.222656 13.199219 C 14.222656 12.808594 13.90625 12.496094 13.523438 12.496094 Z M 13.523438 12.496094 "/>
</g>
</g>
<g clip-path="url(#clip29)" clip-rule="nonzero">
<g clip-path="url(#clip30)" clip-rule="nonzero">
<path style=" stroke:none;fill-rule:nonzero;fill:rgb(100%,100%,100%);fill-opacity:0.501961;" d="M 10.273438 6.609375 C 9.886719 6.609375 9.570312 6.925781 9.570312 7.316406 C 9.570312 7.707031 9.886719 8.023438 10.273438 8.023438 C 10.660156 8.023438 10.976562 7.707031 10.976562 7.316406 C 10.976562 6.925781 10.660156 6.609375 10.273438 6.609375 Z M 10.273438 6.609375 "/>
</g>
</g>
<g clip-path="url(#clip31)" clip-rule="nonzero">
<g clip-path="url(#clip32)" clip-rule="nonzero">
<path style=" stroke:none;fill-rule:nonzero;fill:rgb(100%,100%,100%);fill-opacity:0.501961;" d="M 10.273438 14.457031 C 9.886719 14.457031 9.570312 14.773438 9.570312 15.160156 C 9.570312 15.550781 9.886719 15.871094 10.273438 15.871094 C 10.660156 15.871094 10.976562 15.550781 10.976562 15.160156 C 10.976562 14.773438 10.660156 14.457031 10.273438 14.457031 Z M 10.273438 14.457031 "/>
</g>
</g>
<g clip-path="url(#clip33)" clip-rule="nonzero">
<g clip-path="url(#clip34)" clip-rule="nonzero">
<path style=" stroke:none;fill-rule:nonzero;fill:rgb(100%,100%,100%);fill-opacity:0.501961;" d="M 10.273438 10.53125 C 9.886719 10.53125 9.570312 10.851562 9.570312 11.242188 C 9.570312 11.632812 9.886719 11.945312 10.273438 11.945312 C 10.660156 11.945312 10.976562 11.632812 10.976562 11.242188 C 10.976562 10.851562 10.660156 10.53125 10.273438 10.53125 Z M 10.273438 10.53125 "/>
</g>
</g>
<g clip-path="url(#clip35)" clip-rule="nonzero">
<g clip-path="url(#clip36)" clip-rule="nonzero">
<path style=" stroke:none;fill-rule:nonzero;fill:rgb(100%,100%,100%);fill-opacity:0.501961;" d="M 7.027344 4.648438 C 6.640625 4.648438 6.328125 4.964844 6.328125 5.355469 C 6.328125 5.746094 6.640625 6.0625 7.027344 6.0625 C 7.414062 6.0625 7.730469 5.746094 7.730469 5.355469 C 7.730469 4.964844 7.414062 4.648438 7.027344 4.648438 Z M 7.027344 4.648438 "/>
</g>
</g>
<g clip-path="url(#clip37)" clip-rule="nonzero">
<g clip-path="url(#clip38)" clip-rule="nonzero">
<path style=" stroke:none;fill-rule:nonzero;fill:rgb(100%,100%,100%);fill-opacity:0.501961;" d="M 7.027344 12.496094 C 6.640625 12.496094 6.328125 12.808594 6.328125 13.199219 C 6.328125 13.589844 6.640625 13.90625 7.027344 13.90625 C 7.414062 13.90625 7.730469 13.589844 7.730469 13.199219 C 7.730469 12.808594 7.414062 12.496094 7.027344 12.496094 Z M 7.027344 12.496094 "/>
</g>
</g>
<g clip-path="url(#clip39)" clip-rule="nonzero">
<g clip-path="url(#clip40)" clip-rule="nonzero">
<path style=" stroke:none;fill-rule:nonzero;fill:rgb(100%,100%,100%);fill-opacity:0.501961;" d="M 7.027344 8.570312 C 6.640625 8.570312 6.328125 8.890625 6.328125 9.277344 C 6.328125 9.667969 6.640625 9.984375 7.027344 9.984375 C 7.414062 9.984375 7.730469 9.667969 7.730469 9.277344 C 7.730469 8.890625 7.414062 8.570312 7.027344 8.570312 Z M 7.027344 8.570312 "/>
</g>
</g>
<g clip-path="url(#clip41)" clip-rule="nonzero">
<g clip-path="url(#clip42)" clip-rule="nonzero">
<path style=" stroke:none;fill-rule:nonzero;fill:rgb(100%,100%,100%);fill-opacity:0.501961;" d="M 86.132812 3.03125 C 85.78125 3.03125 85.492188 3.316406 85.492188 3.671875 C 85.492188 4.027344 85.78125 4.3125 86.132812 4.3125 C 86.484375 4.3125 86.769531 4.027344 86.769531 3.671875 C 86.769531 3.316406 86.484375 3.03125 86.132812 3.03125 Z M 86.132812 3.03125 "/>
</g>
</g>
<g clip-path="url(#clip43)" clip-rule="nonzero">
<g clip-path="url(#clip44)" clip-rule="nonzero">
<path style=" stroke:none;fill-rule:nonzero;fill:rgb(100%,100%,100%);fill-opacity:0.501961;" d="M 100.929688 3.03125 C 100.574219 3.03125 100.289062 3.316406 100.289062 3.671875 C 100.289062 4.027344 100.574219 4.3125 100.929688 4.3125 C 101.28125 4.3125 101.566406 4.027344 101.566406 3.671875 C 101.566406 3.316406 101.28125 3.03125 100.929688 3.03125 Z M 100.929688 3.03125 "/>
</g>
</g>
<g clip-path="url(#clip45)" clip-rule="nonzero">
<g clip-path="url(#clip46)" clip-rule="nonzero">
<path style=" stroke:none;fill-rule:nonzero;fill:rgb(100%,100%,100%);fill-opacity:0.501961;" d="M 97.578125 13.667969 C 97.226562 13.667969 96.9375 13.953125 96.9375 14.308594 C 96.9375 14.660156 97.226562 14.945312 97.578125 14.945312 C 97.925781 14.945312 98.210938 14.660156 98.210938 14.308594 C 98.210938 13.953125 97.925781 13.667969 97.578125 13.667969 Z M 97.578125 13.667969 "/>
</g>
</g>
</g>
</svg>
