<svg width="26.701416" height="20.000000" viewBox="0 0 26.7014 20" fill="none" xmlns="http://www.w3.org/2000/svg" xmlns:xlink="http://www.w3.org/1999/xlink">
	<desc>
			Created with Pixso.
	</desc>
	<defs/>
	<path d="M1.62 3.24L25.07 3.24C25.97 3.24 26.7 2.51 26.7 1.62C26.7 0.72 25.97 0 25.07 0L1.62 0C0.72 0 0 0.72 0 1.62C0 2.51 0.72 3.24 1.62 3.24ZM25.07 8.37L1.62 8.37C0.72 8.37 0 9.1 0 10C0 10.89 0.72 11.62 1.62 11.62L25.07 11.62C25.97 11.62 26.7 10.89 26.7 10C26.7 9.1 25.97 8.37 25.07 8.37ZM1.62 16.75L25.07 16.75C25.97 16.75 26.7 17.48 26.7 18.37C26.7 19.27 25.97 20 25.07 20L1.62 20C0.72 20 0 19.27 0 18.37C0 17.48 0.72 16.75 1.62 16.75Z" fill="#FFFFFF" fill-opacity="1.000000" fill-rule="evenodd"/>
</svg>
