<svg width="192.000000" height="60.000000" viewBox="0 0 192 60" fill="none" xmlns="http://www.w3.org/2000/svg" xmlns:xlink="http://www.w3.org/1999/xlink">
	<desc>
			Created with Pixso.
	</desc>
	<defs>
		<clipPath id="clip2_333">
			<rect rx="-0.500000" width="191.000000" height="59.000000" transform="translate(0.500000 0.500000)" fill="white" fill-opacity="0"/>
		</clipPath>
	</defs>
	<rect rx="-0.500000" width="191.000000" height="59.000000" transform="translate(0.500000 0.500000)" fill="#FFFFFF" fill-opacity="0"/>
	<g clip-path="url(#clip2_333)">
		<path d="M63.92 28.98C63.68 26.29 61.62 23.84 58.77 23.84C55.93 23.84 53.9 26.29 53.63 28.98L63.92 28.98L63.92 28.98ZM65.08 29.51C65.08 29.66 65.02 29.8 64.92 29.91C64.81 30.01 64.67 30.07 64.52 30.07L53.63 30.07C53.9 32.76 55.93 35.21 58.77 35.21C60.72 35.21 62.16 34.47 63.25 32.91C63.41 32.7 63.64 32.56 63.95 32.69C64.02 32.72 64.08 32.77 64.13 32.82C64.18 32.88 64.22 32.95 64.24 33.02C64.26 33.09 64.27 33.17 64.26 33.24C64.25 33.32 64.23 33.39 64.19 33.46C63.1 35.37 60.92 36.3 58.77 36.3C55.11 36.3 52.5 33.03 52.5 29.52C52.5 26.02 55.11 22.74 58.77 22.74C62.43 22.74 65.08 26.01 65.09 29.51L65.08 29.51ZM78.29 23.02C78.6 23.02 78.84 23.29 78.84 23.56C78.84 23.87 78.6 24.11 78.29 24.11L75.37 24.11L75.37 35.56C75.37 35.71 75.31 35.84 75.21 35.94C75.11 36.05 74.97 36.1 74.82 36.11C74.68 36.1 74.54 36.05 74.44 35.94C74.34 35.84 74.28 35.71 74.28 35.56L74.28 24.11L71.47 24.11C71.4 24.11 71.33 24.1 71.26 24.07C71.2 24.04 71.14 24 71.08 23.95C71.03 23.9 70.99 23.84 70.97 23.77C70.94 23.71 70.93 23.64 70.93 23.56C70.93 23.29 71.16 23.02 71.47 23.02L74.28 23.02L74.28 18.82C74.28 18.56 74.46 18.32 74.72 18.27C75.08 18.21 75.37 18.46 75.37 18.81L75.37 23.02L78.29 23.02ZM96.09 28.55L96.09 35.49C96.09 35.8 95.82 36.03 95.55 36.03C95.48 36.03 95.41 36.02 95.34 35.99C95.27 35.96 95.21 35.92 95.16 35.87C95.11 35.82 95.07 35.76 95.04 35.69C95.02 35.63 95 35.56 95 35.48L95 28.55C95 26.21 93.68 23.87 91.07 23.87C87.72 23.87 86.28 26.8 86.47 29.8C86.47 29.87 86.51 30.22 86.51 30.26L86.51 35.47C86.51 35.73 86.33 35.98 86.07 36.02C85.71 36.08 85.42 35.83 85.42 35.48L85.42 12.69C85.42 12.42 85.65 12.15 85.97 12.15C86.28 12.15 86.51 12.42 86.51 12.69L86.51 25.59C87.45 23.91 89.12 22.78 91.07 22.78C94.26 22.78 96.09 25.59 96.09 28.55ZM114.44 28.98C114.21 26.29 112.15 23.84 109.3 23.84C106.46 23.84 104.43 26.29 104.16 28.98L114.44 28.98L114.44 28.98ZM115.61 29.51C115.61 29.66 115.55 29.8 115.44 29.91C115.34 30.01 115.2 30.07 115.05 30.07L104.16 30.07C104.43 32.76 106.46 35.21 109.3 35.21C111.25 35.21 112.69 34.47 113.78 32.91C113.94 32.7 114.17 32.56 114.48 32.69C114.55 32.72 114.61 32.77 114.66 32.82C114.71 32.88 114.75 32.95 114.77 33.02C114.79 33.09 114.8 33.17 114.79 33.24C114.78 33.32 114.76 33.39 114.72 33.46C113.63 35.37 111.44 36.3 109.3 36.3C105.64 36.3 103.03 33.03 103.03 29.52C103.03 26.02 105.64 22.74 109.3 22.74C112.96 22.74 115.61 26.01 115.61 29.51L115.61 29.51ZM128.98 23.52C128.98 23.87 128.78 24.07 128.47 24.11C125.27 24.58 123.83 27.19 123.83 30.22L123.83 35.43C123.83 35.7 123.65 35.94 123.39 35.98C123.03 36.04 122.74 35.79 122.74 35.44L122.74 23.58C122.74 23.31 122.92 23.07 123.18 23.03C123.55 22.97 123.83 23.22 123.83 23.56L123.83 25.98C124.73 24.46 126.52 23.02 128.39 23.02C128.66 23.02 128.98 23.21 128.98 23.52ZM145.69 28.98C145.45 26.29 143.39 23.84 140.55 23.84C137.7 23.84 135.67 26.29 135.4 28.98L145.69 28.98ZM146.86 29.51C146.85 29.66 146.79 29.8 146.69 29.91C146.58 30.01 146.44 30.07 146.29 30.07L135.4 30.07C135.67 32.76 137.7 35.21 140.55 35.21C142.49 35.21 143.93 34.47 145.03 32.91C145.18 32.7 145.42 32.56 145.72 32.69C145.8 32.72 145.87 32.78 145.92 32.85C145.98 32.91 146.01 33 146.03 33.08C146.05 33.21 146.03 33.35 145.96 33.46C144.87 35.37 142.69 36.3 140.55 36.3C136.88 36.3 134.27 33.03 134.27 29.52C134.27 26.02 136.88 22.74 140.55 22.74C144.2 22.74 146.85 26.01 146.86 29.51L146.86 29.51ZM164.43 23.66L164.43 35.56C164.43 35.87 164.15 36.11 163.88 36.11C163.81 36.11 163.74 36.1 163.67 36.07C163.6 36.04 163.54 36 163.49 35.95C163.44 35.9 163.4 35.84 163.37 35.77C163.35 35.71 163.33 35.63 163.33 35.56L163.33 33.3C162.44 35.09 160.84 36.38 158.82 36.38C155.58 36.38 153.79 33.57 153.79 30.61L153.79 23.64C153.79 23.37 154.02 23.09 154.34 23.09C154.65 23.09 154.88 23.37 154.88 23.64L154.88 30.61C154.88 32.95 156.21 35.29 158.82 35.29C162.48 35.29 163.33 31.86 163.33 28.08L163.33 23.64C163.34 23.56 163.36 23.47 163.39 23.4C163.43 23.32 163.49 23.26 163.56 23.21C163.63 23.16 163.7 23.12 163.79 23.11C163.87 23.09 163.96 23.09 164.04 23.12C164.15 23.15 164.25 23.23 164.32 23.33C164.39 23.42 164.43 23.54 164.43 23.66ZM191.97 28.51L191.97 35.48C191.97 35.8 191.7 36.03 191.42 36.03C191.35 36.03 191.28 36.02 191.21 35.99C191.15 35.96 191.08 35.92 191.03 35.87C190.98 35.82 190.94 35.76 190.92 35.69C190.89 35.63 190.88 35.56 190.88 35.48L190.88 28.51C190.88 26.17 189.55 23.87 186.94 23.87C183.67 23.87 182.42 27.38 182.42 30.11L182.42 35.48C182.42 35.8 182.15 36.03 181.88 36.03C181.81 36.03 181.73 36.02 181.67 35.99C181.6 35.96 181.54 35.92 181.49 35.87C181.44 35.82 181.4 35.76 181.37 35.69C181.34 35.63 181.33 35.56 181.33 35.48L181.33 28.51C181.33 26.17 180.01 23.87 177.4 23.87C174.09 23.87 172.72 26.49 172.84 29.95C172.84 30.03 172.88 30.19 172.84 30.22L172.84 35.47C172.84 35.73 172.66 35.98 172.4 36.02C172.04 36.08 171.75 35.83 171.75 35.48L171.75 23.58C171.75 23.31 171.93 23.07 172.19 23.03C172.55 22.97 172.84 23.22 172.84 23.56L172.84 25.55C173.78 23.87 175.45 22.78 177.4 22.78C179.62 22.78 181.33 24.19 182.03 26.25C182.93 24.23 184.68 22.78 186.94 22.78C190.14 22.78 191.97 25.55 191.97 28.51Z" fill="#FFFFFF" fill-opacity="0.500000" fill-rule="evenodd"/>
		<path d="M0.39 30.67L18.58 41.43L18.58 0.49L0.39 30.67Z" fill="#FFFFFF" fill-opacity="0.500000" fill-rule="evenodd"/>
		<path d="M18.58 0.49L18.58 41.43L36.77 30.67L18.58 0.49Z" fill="#FFFFFF" fill-opacity="0.500000" fill-rule="evenodd"/>
		<path d="M18.58 22.4L0.39 30.67L18.58 41.43L36.77 30.67L18.58 22.4Z" fill="#FFFFFF" fill-opacity="0.500000" fill-rule="evenodd"/>
		<path d="M18.58 22.4L0.39 30.67L18.58 41.43L18.58 22.4Z" fill="#FFFFFF" fill-opacity="0.500000" fill-rule="evenodd"/>
		<path d="M0.39 34.12L18.58 59.76L18.58 44.87L0.39 34.12Z" fill="#FFFFFF" fill-opacity="0.500000" fill-rule="evenodd"/>
		<path d="M18.58 44.87L18.58 59.76L36.78 34.12L18.58 44.87Z" fill="#FFFFFF" fill-opacity="0.500000" fill-rule="evenodd"/>
	</g>
</svg>
