<?xml version="1.0" encoding="UTF-8"?>
<svg xmlns="http://www.w3.org/2000/svg" xmlns:xlink="http://www.w3.org/1999/xlink" width="58px" height="18px" viewBox="0 0 57 18" version="1.1">
<defs>
<clipPath id="clip1">
  <path d="M 15 3 L 57 3 L 57 11 L 15 11 Z M 15 3 "/>
</clipPath>
<clipPath id="clip2">
  <path d="M 0.296875 0.148438 L 56.703125 0.148438 C 56.785156 0.148438 56.851562 0.21875 56.851562 0.300781 L 56.851562 17.699219 C 56.851562 17.78125 56.785156 17.851562 56.703125 17.851562 L 0.296875 17.851562 C 0.214844 17.851562 0.148438 17.78125 0.148438 17.699219 L 0.148438 0.300781 C 0.148438 0.21875 0.214844 0.148438 0.296875 0.148438 Z M 0.296875 0.148438 "/>
</clipPath>
<clipPath id="clip3">
  <path d="M 0 0 L 6 0 L 6 13 L 0 13 Z M 0 0 "/>
</clipPath>
<clipPath id="clip4">
  <path d="M 0.296875 0.148438 L 56.703125 0.148438 C 56.785156 0.148438 56.851562 0.21875 56.851562 0.300781 L 56.851562 17.699219 C 56.851562 17.78125 56.785156 17.851562 56.703125 17.851562 L 0.296875 17.851562 C 0.214844 17.851562 0.148438 17.78125 0.148438 17.699219 L 0.148438 0.300781 C 0.148438 0.21875 0.214844 0.148438 0.296875 0.148438 Z M 0.296875 0.148438 "/>
</clipPath>
<clipPath id="clip5">
  <path d="M 5 0 L 11 0 L 11 13 L 5 13 Z M 5 0 "/>
</clipPath>
<clipPath id="clip6">
  <path d="M 0.296875 0.148438 L 56.703125 0.148438 C 56.785156 0.148438 56.851562 0.21875 56.851562 0.300781 L 56.851562 17.699219 C 56.851562 17.78125 56.785156 17.851562 56.703125 17.851562 L 0.296875 17.851562 C 0.214844 17.851562 0.148438 17.78125 0.148438 17.699219 L 0.148438 0.300781 C 0.148438 0.21875 0.214844 0.148438 0.296875 0.148438 Z M 0.296875 0.148438 "/>
</clipPath>
<clipPath id="clip7">
  <path d="M 0 6 L 11 6 L 11 13 L 0 13 Z M 0 6 "/>
</clipPath>
<clipPath id="clip8">
  <path d="M 0.296875 0.148438 L 56.703125 0.148438 C 56.785156 0.148438 56.851562 0.21875 56.851562 0.300781 L 56.851562 17.699219 C 56.851562 17.78125 56.785156 17.851562 56.703125 17.851562 L 0.296875 17.851562 C 0.214844 17.851562 0.148438 17.78125 0.148438 17.699219 L 0.148438 0.300781 C 0.148438 0.21875 0.214844 0.148438 0.296875 0.148438 Z M 0.296875 0.148438 "/>
</clipPath>
<clipPath id="clip9">
  <path d="M 0 6 L 6 6 L 6 13 L 0 13 Z M 0 6 "/>
</clipPath>
<clipPath id="clip10">
  <path d="M 0.296875 0.148438 L 56.703125 0.148438 C 56.785156 0.148438 56.851562 0.21875 56.851562 0.300781 L 56.851562 17.699219 C 56.851562 17.78125 56.785156 17.851562 56.703125 17.851562 L 0.296875 17.851562 C 0.214844 17.851562 0.148438 17.78125 0.148438 17.699219 L 0.148438 0.300781 C 0.148438 0.21875 0.214844 0.148438 0.296875 0.148438 Z M 0.296875 0.148438 "/>
</clipPath>
<clipPath id="clip11">
  <path d="M 0 10 L 6 10 L 6 18 L 0 18 Z M 0 10 "/>
</clipPath>
<clipPath id="clip12">
  <path d="M 0.296875 0.148438 L 56.703125 0.148438 C 56.785156 0.148438 56.851562 0.21875 56.851562 0.300781 L 56.851562 17.699219 C 56.851562 17.78125 56.785156 17.851562 56.703125 17.851562 L 0.296875 17.851562 C 0.214844 17.851562 0.148438 17.78125 0.148438 17.699219 L 0.148438 0.300781 C 0.148438 0.21875 0.214844 0.148438 0.296875 0.148438 Z M 0.296875 0.148438 "/>
</clipPath>
<clipPath id="clip13">
  <path d="M 5 10 L 11 10 L 11 18 L 5 18 Z M 5 10 "/>
</clipPath>
<clipPath id="clip14">
  <path d="M 0.296875 0.148438 L 56.703125 0.148438 C 56.785156 0.148438 56.851562 0.21875 56.851562 0.300781 L 56.851562 17.699219 C 56.851562 17.78125 56.785156 17.851562 56.703125 17.851562 L 0.296875 17.851562 C 0.214844 17.851562 0.148438 17.78125 0.148438 17.699219 L 0.148438 0.300781 C 0.148438 0.21875 0.214844 0.148438 0.296875 0.148438 Z M 0.296875 0.148438 "/>
</clipPath>
</defs>
<g id="surface1">
<g clip-path="url(#clip1)" clip-rule="nonzero">
<g clip-path="url(#clip2)" clip-rule="nonzero">
<path style=" stroke:none;fill-rule:evenodd;fill:rgb(100%,100%,100%);fill-opacity:0.501961;" d="M 18.976562 8.695312 C 18.90625 7.886719 18.292969 7.152344 17.449219 7.152344 C 16.605469 7.152344 16 7.886719 15.921875 8.695312 Z M 19.320312 8.851562 C 19.320312 8.898438 19.304688 8.941406 19.273438 8.972656 C 19.242188 9.003906 19.199219 9.019531 19.15625 9.019531 L 15.921875 9.019531 C 16 9.828125 16.605469 10.5625 17.449219 10.5625 C 18.027344 10.5625 18.453125 10.339844 18.777344 9.871094 C 18.824219 9.808594 18.894531 9.769531 18.984375 9.808594 C 19.007812 9.816406 19.023438 9.832031 19.039062 9.847656 C 19.054688 9.863281 19.066406 9.886719 19.070312 9.90625 C 19.078125 9.925781 19.082031 9.949219 19.078125 9.972656 C 19.074219 9.996094 19.066406 10.015625 19.054688 10.039062 C 18.734375 10.609375 18.085938 10.890625 17.449219 10.890625 C 16.359375 10.890625 15.585938 9.910156 15.585938 8.855469 C 15.585938 7.804688 16.359375 6.820312 17.449219 6.820312 C 18.535156 6.820312 19.320312 7.804688 19.324219 8.851562 Z M 23.242188 6.90625 C 23.335938 6.90625 23.40625 6.988281 23.40625 7.066406 C 23.40625 7.160156 23.335938 7.234375 23.242188 7.234375 L 22.375 7.234375 L 22.375 10.667969 C 22.375 10.714844 22.359375 10.753906 22.328125 10.78125 C 22.296875 10.816406 22.257812 10.828125 22.210938 10.832031 C 22.171875 10.828125 22.128906 10.816406 22.097656 10.78125 C 22.070312 10.753906 22.050781 10.714844 22.050781 10.667969 L 22.050781 7.234375 L 21.21875 7.234375 C 21.195312 7.234375 21.175781 7.230469 21.15625 7.222656 C 21.136719 7.210938 21.121094 7.199219 21.101562 7.183594 C 21.085938 7.171875 21.074219 7.152344 21.070312 7.132812 C 21.058594 7.113281 21.058594 7.09375 21.058594 7.066406 C 21.058594 6.988281 21.125 6.90625 21.21875 6.90625 L 22.050781 6.90625 L 22.050781 5.644531 C 22.050781 5.566406 22.105469 5.496094 22.183594 5.480469 C 22.289062 5.464844 22.375 5.539062 22.375 5.644531 L 22.375 6.90625 Z M 28.527344 8.566406 L 28.527344 10.648438 C 28.527344 10.738281 28.445312 10.808594 28.367188 10.808594 C 28.34375 10.808594 28.324219 10.804688 28.304688 10.796875 C 28.285156 10.789062 28.265625 10.777344 28.25 10.761719 C 28.234375 10.746094 28.222656 10.726562 28.214844 10.707031 C 28.210938 10.6875 28.203125 10.667969 28.203125 10.644531 L 28.203125 8.566406 C 28.203125 7.863281 27.8125 7.160156 27.035156 7.160156 C 26.042969 7.160156 25.613281 8.039062 25.671875 8.941406 C 25.671875 8.960938 25.683594 9.066406 25.683594 9.078125 L 25.683594 10.640625 C 25.683594 10.71875 25.628906 10.792969 25.550781 10.804688 C 25.445312 10.824219 25.359375 10.75 25.359375 10.644531 L 25.359375 3.808594 C 25.359375 3.726562 25.425781 3.644531 25.523438 3.644531 C 25.613281 3.644531 25.683594 3.726562 25.683594 3.808594 L 25.683594 7.675781 C 25.960938 7.171875 26.457031 6.835938 27.035156 6.835938 C 27.984375 6.835938 28.527344 7.675781 28.527344 8.566406 Z M 33.972656 8.695312 C 33.90625 7.886719 33.292969 7.152344 32.449219 7.152344 C 31.605469 7.152344 31.003906 7.886719 30.921875 8.695312 Z M 34.320312 8.851562 C 34.320312 8.898438 34.304688 8.941406 34.269531 8.972656 C 34.242188 9.003906 34.199219 9.019531 34.15625 9.019531 L 30.921875 9.019531 C 31.003906 9.828125 31.605469 10.5625 32.449219 10.5625 C 33.027344 10.5625 33.453125 10.339844 33.777344 9.871094 C 33.824219 9.808594 33.894531 9.769531 33.984375 9.808594 C 34.007812 9.816406 34.023438 9.832031 34.039062 9.847656 C 34.054688 9.863281 34.066406 9.886719 34.074219 9.90625 C 34.078125 9.925781 34.082031 9.949219 34.078125 9.972656 C 34.074219 9.996094 34.070312 10.015625 34.058594 10.039062 C 33.734375 10.609375 33.082031 10.890625 32.449219 10.890625 C 31.363281 10.890625 30.585938 9.910156 30.585938 8.855469 C 30.585938 7.804688 31.363281 6.820312 32.449219 6.820312 C 33.535156 6.820312 34.320312 7.804688 34.320312 8.851562 Z M 38.289062 7.054688 C 38.289062 7.160156 38.230469 7.222656 38.140625 7.234375 C 37.191406 7.375 36.761719 8.15625 36.761719 9.066406 L 36.761719 10.628906 C 36.761719 10.710938 36.707031 10.78125 36.632812 10.792969 C 36.523438 10.8125 36.4375 10.738281 36.4375 10.632812 L 36.4375 7.074219 C 36.4375 6.992188 36.492188 6.921875 36.570312 6.910156 C 36.679688 6.890625 36.761719 6.964844 36.761719 7.066406 L 36.761719 7.792969 C 37.027344 7.339844 37.5625 6.90625 38.117188 6.90625 C 38.195312 6.90625 38.289062 6.964844 38.289062 7.054688 Z M 43.25 8.695312 C 43.179688 7.886719 42.570312 7.152344 41.726562 7.152344 C 40.878906 7.152344 40.277344 7.886719 40.195312 8.695312 Z M 43.597656 8.851562 C 43.597656 8.898438 43.578125 8.941406 43.546875 8.972656 C 43.515625 9.003906 43.472656 9.019531 43.429688 9.019531 L 40.195312 9.019531 C 40.277344 9.828125 40.878906 10.5625 41.726562 10.5625 C 42.300781 10.5625 42.730469 10.339844 43.054688 9.871094 C 43.101562 9.808594 43.171875 9.769531 43.261719 9.808594 C 43.285156 9.816406 43.304688 9.835938 43.320312 9.855469 C 43.335938 9.871094 43.347656 9.898438 43.351562 9.925781 C 43.359375 9.964844 43.351562 10.003906 43.332031 10.039062 C 43.007812 10.609375 42.359375 10.890625 41.726562 10.890625 C 40.636719 10.890625 39.863281 9.910156 39.863281 8.855469 C 39.863281 7.804688 40.636719 6.820312 41.726562 6.820312 C 42.808594 6.820312 43.597656 7.804688 43.597656 8.851562 Z M 48.816406 7.097656 L 48.816406 10.667969 C 48.816406 10.761719 48.730469 10.832031 48.652344 10.832031 C 48.632812 10.832031 48.609375 10.828125 48.589844 10.820312 C 48.570312 10.8125 48.550781 10.800781 48.535156 10.785156 C 48.519531 10.769531 48.507812 10.753906 48.5 10.730469 C 48.496094 10.714844 48.488281 10.6875 48.488281 10.667969 L 48.488281 9.988281 C 48.222656 10.527344 47.75 10.914062 47.148438 10.914062 C 46.1875 10.914062 45.65625 10.070312 45.65625 9.183594 L 45.65625 7.09375 C 45.65625 7.011719 45.726562 6.925781 45.820312 6.925781 C 45.910156 6.925781 45.980469 7.011719 45.980469 7.09375 L 45.980469 9.183594 C 45.980469 9.886719 46.375 10.585938 47.148438 10.585938 C 48.234375 10.585938 48.488281 9.558594 48.488281 8.425781 L 48.488281 7.09375 C 48.492188 7.066406 48.496094 7.039062 48.507812 7.019531 C 48.519531 6.996094 48.535156 6.976562 48.558594 6.964844 C 48.578125 6.949219 48.597656 6.9375 48.625 6.933594 C 48.648438 6.925781 48.675781 6.925781 48.699219 6.9375 C 48.730469 6.945312 48.761719 6.96875 48.78125 7 C 48.804688 7.027344 48.816406 7.0625 48.816406 7.097656 Z M 56.992188 8.554688 L 56.992188 10.644531 C 56.992188 10.738281 56.910156 10.808594 56.828125 10.808594 C 56.808594 10.808594 56.785156 10.804688 56.765625 10.796875 C 56.746094 10.789062 56.726562 10.777344 56.710938 10.761719 C 56.695312 10.746094 56.683594 10.726562 56.679688 10.707031 C 56.671875 10.6875 56.667969 10.667969 56.667969 10.644531 L 56.667969 8.554688 C 56.667969 7.851562 56.273438 7.160156 55.496094 7.160156 C 54.527344 7.160156 54.15625 8.214844 54.15625 9.03125 L 54.15625 10.644531 C 54.15625 10.738281 54.074219 10.808594 53.996094 10.808594 C 53.976562 10.808594 53.949219 10.804688 53.933594 10.796875 C 53.914062 10.789062 53.894531 10.777344 53.878906 10.761719 C 53.863281 10.746094 53.851562 10.726562 53.84375 10.707031 C 53.835938 10.6875 53.832031 10.667969 53.832031 10.644531 L 53.832031 8.554688 C 53.832031 7.851562 53.441406 7.160156 52.664062 7.160156 C 51.683594 7.160156 51.277344 7.945312 51.3125 8.984375 C 51.3125 9.007812 51.324219 9.058594 51.3125 9.066406 L 51.3125 10.640625 C 51.3125 10.71875 51.257812 10.792969 51.179688 10.804688 C 51.074219 10.824219 50.988281 10.75 50.988281 10.644531 L 50.988281 7.074219 C 50.988281 6.992188 51.042969 6.921875 51.117188 6.910156 C 51.226562 6.890625 51.3125 6.964844 51.3125 7.066406 L 51.3125 7.664062 C 51.589844 7.160156 52.085938 6.835938 52.664062 6.835938 C 53.324219 6.835938 53.832031 7.257812 54.039062 7.875 C 54.308594 7.269531 54.828125 6.835938 55.496094 6.835938 C 56.449219 6.835938 56.992188 7.664062 56.992188 8.554688 Z M 56.992188 8.554688 "/>
</g>
</g>
<g clip-path="url(#clip3)" clip-rule="nonzero">
<g clip-path="url(#clip4)" clip-rule="nonzero">
<path style=" stroke:none;fill-rule:evenodd;fill:rgb(100%,100%,100%);fill-opacity:0.501961;" d="M 0.117188 9.199219 L 5.515625 12.429688 L 5.515625 0.148438 Z M 0.117188 9.199219 "/>
</g>
</g>
<g clip-path="url(#clip5)" clip-rule="nonzero">
<g clip-path="url(#clip6)" clip-rule="nonzero">
<path style=" stroke:none;fill-rule:evenodd;fill:rgb(100%,100%,100%);fill-opacity:0.501961;" d="M 5.515625 0.148438 L 5.515625 12.429688 L 10.917969 9.199219 Z M 5.515625 0.148438 "/>
</g>
</g>
<g clip-path="url(#clip7)" clip-rule="nonzero">
<g clip-path="url(#clip8)" clip-rule="nonzero">
<path style=" stroke:none;fill-rule:evenodd;fill:rgb(100%,100%,100%);fill-opacity:0.501961;" d="M 5.515625 6.71875 L 0.117188 9.199219 L 5.515625 12.429688 L 10.917969 9.199219 Z M 5.515625 6.71875 "/>
</g>
</g>
<g clip-path="url(#clip9)" clip-rule="nonzero">
<g clip-path="url(#clip10)" clip-rule="nonzero">
<path style=" stroke:none;fill-rule:evenodd;fill:rgb(100%,100%,100%);fill-opacity:0.501961;" d="M 5.515625 6.71875 L 0.117188 9.199219 L 5.515625 12.429688 Z M 5.515625 6.71875 "/>
</g>
</g>
<g clip-path="url(#clip11)" clip-rule="nonzero">
<g clip-path="url(#clip12)" clip-rule="nonzero">
<path style=" stroke:none;fill-rule:evenodd;fill:rgb(100%,100%,100%);fill-opacity:0.501961;" d="M 0.117188 10.234375 L 5.515625 17.929688 L 5.515625 13.460938 Z M 0.117188 10.234375 "/>
</g>
</g>
<g clip-path="url(#clip13)" clip-rule="nonzero">
<g clip-path="url(#clip14)" clip-rule="nonzero">
<path style=" stroke:none;fill-rule:evenodd;fill:rgb(100%,100%,100%);fill-opacity:0.501961;" d="M 5.515625 13.460938 L 5.515625 17.929688 L 10.917969 10.234375 Z M 5.515625 13.460938 "/>
</g>
</g>
</g>
</svg>
