<?xml version="1.0" encoding="UTF-8"?>
<svg xmlns="http://www.w3.org/2000/svg" xmlns:xlink="http://www.w3.org/1999/xlink" width="128px" height="40px" viewBox="0 0 128 40" version="1.1">
<defs>
<clipPath id="clip1">
  <path d="M 35 8 L 128 8 L 128 25 L 35 25 Z M 35 8 "/>
</clipPath>
<clipPath id="clip2">
  <path d="M 0.667969 0.332031 L 127.332031 0.332031 C 127.515625 0.332031 127.667969 0.484375 127.667969 0.667969 L 127.667969 39.332031 C 127.667969 39.515625 127.515625 39.667969 127.332031 39.667969 L 0.667969 39.667969 C 0.484375 39.667969 0.332031 39.515625 0.332031 39.332031 L 0.332031 0.667969 C 0.332031 0.484375 0.484375 0.332031 0.667969 0.332031 Z M 0.667969 0.332031 "/>
</clipPath>
<clipPath id="clip3">
  <path d="M 0 0 L 13 0 L 13 28 L 0 28 Z M 0 0 "/>
</clipPath>
<clipPath id="clip4">
  <path d="M 0.667969 0.332031 L 127.332031 0.332031 C 127.515625 0.332031 127.667969 0.484375 127.667969 0.667969 L 127.667969 39.332031 C 127.667969 39.515625 127.515625 39.667969 127.332031 39.667969 L 0.667969 39.667969 C 0.484375 39.667969 0.332031 39.515625 0.332031 39.332031 L 0.332031 0.667969 C 0.332031 0.484375 0.484375 0.332031 0.667969 0.332031 Z M 0.667969 0.332031 "/>
</clipPath>
<clipPath id="clip5">
  <path d="M 12 0 L 25 0 L 25 28 L 12 28 Z M 12 0 "/>
</clipPath>
<clipPath id="clip6">
  <path d="M 0.667969 0.332031 L 127.332031 0.332031 C 127.515625 0.332031 127.667969 0.484375 127.667969 0.667969 L 127.667969 39.332031 C 127.667969 39.515625 127.515625 39.667969 127.332031 39.667969 L 0.667969 39.667969 C 0.484375 39.667969 0.332031 39.515625 0.332031 39.332031 L 0.332031 0.667969 C 0.332031 0.484375 0.484375 0.332031 0.667969 0.332031 Z M 0.667969 0.332031 "/>
</clipPath>
<clipPath id="clip7">
  <path d="M 0 14 L 25 14 L 25 28 L 0 28 Z M 0 14 "/>
</clipPath>
<clipPath id="clip8">
  <path d="M 0.667969 0.332031 L 127.332031 0.332031 C 127.515625 0.332031 127.667969 0.484375 127.667969 0.667969 L 127.667969 39.332031 C 127.667969 39.515625 127.515625 39.667969 127.332031 39.667969 L 0.667969 39.667969 C 0.484375 39.667969 0.332031 39.515625 0.332031 39.332031 L 0.332031 0.667969 C 0.332031 0.484375 0.484375 0.332031 0.667969 0.332031 Z M 0.667969 0.332031 "/>
</clipPath>
<clipPath id="clip9">
  <path d="M 0 14 L 13 14 L 13 28 L 0 28 Z M 0 14 "/>
</clipPath>
<clipPath id="clip10">
  <path d="M 0.667969 0.332031 L 127.332031 0.332031 C 127.515625 0.332031 127.667969 0.484375 127.667969 0.667969 L 127.667969 39.332031 C 127.667969 39.515625 127.515625 39.667969 127.332031 39.667969 L 0.667969 39.667969 C 0.484375 39.667969 0.332031 39.515625 0.332031 39.332031 L 0.332031 0.667969 C 0.332031 0.484375 0.484375 0.332031 0.667969 0.332031 Z M 0.667969 0.332031 "/>
</clipPath>
<clipPath id="clip11">
  <path d="M 0 22 L 13 22 L 13 40 L 0 40 Z M 0 22 "/>
</clipPath>
<clipPath id="clip12">
  <path d="M 0.667969 0.332031 L 127.332031 0.332031 C 127.515625 0.332031 127.667969 0.484375 127.667969 0.667969 L 127.667969 39.332031 C 127.667969 39.515625 127.515625 39.667969 127.332031 39.667969 L 0.667969 39.667969 C 0.484375 39.667969 0.332031 39.515625 0.332031 39.332031 L 0.332031 0.667969 C 0.332031 0.484375 0.484375 0.332031 0.667969 0.332031 Z M 0.667969 0.332031 "/>
</clipPath>
<clipPath id="clip13">
  <path d="M 12 22 L 25 22 L 25 40 L 12 40 Z M 12 22 "/>
</clipPath>
<clipPath id="clip14">
  <path d="M 0.667969 0.332031 L 127.332031 0.332031 C 127.515625 0.332031 127.667969 0.484375 127.667969 0.667969 L 127.667969 39.332031 C 127.667969 39.515625 127.515625 39.667969 127.332031 39.667969 L 0.667969 39.667969 C 0.484375 39.667969 0.332031 39.515625 0.332031 39.332031 L 0.332031 0.667969 C 0.332031 0.484375 0.484375 0.332031 0.667969 0.332031 Z M 0.667969 0.332031 "/>
</clipPath>
</defs>
<g id="surface1">
<g clip-path="url(#clip1)" clip-rule="nonzero">
<g clip-path="url(#clip2)" clip-rule="nonzero">
<path style=" stroke:none;fill-rule:evenodd;fill:rgb(100%,100%,100%);fill-opacity:0.501961;" d="M 42.613281 19.320312 C 42.453125 17.527344 41.078125 15.894531 39.179688 15.894531 C 37.285156 15.894531 35.933594 17.527344 35.753906 19.320312 Z M 43.386719 19.671875 C 43.386719 19.773438 43.347656 19.867188 43.28125 19.941406 C 43.207031 20.007812 43.113281 20.046875 43.011719 20.046875 L 35.753906 20.046875 C 35.933594 21.839844 37.285156 23.472656 39.179688 23.472656 C 40.480469 23.472656 41.441406 22.980469 42.167969 21.941406 C 42.273438 21.800781 42.425781 21.707031 42.632812 21.792969 C 42.679688 21.8125 42.71875 21.847656 42.753906 21.878906 C 42.785156 21.921875 42.8125 21.964844 42.828125 22.011719 C 42.839844 22.058594 42.847656 22.113281 42.839844 22.160156 C 42.832031 22.214844 42.820312 22.261719 42.792969 22.308594 C 42.066406 23.578125 40.613281 24.199219 39.179688 24.199219 C 36.738281 24.199219 35 22.019531 35 19.679688 C 35 17.347656 36.738281 15.160156 39.179688 15.160156 C 41.621094 15.160156 43.386719 17.339844 43.394531 19.671875 Z M 52.191406 15.347656 C 52.398438 15.347656 52.558594 15.527344 52.558594 15.707031 C 52.558594 15.914062 52.398438 16.074219 52.191406 16.074219 L 50.246094 16.074219 L 50.246094 23.707031 C 50.246094 23.808594 50.207031 23.894531 50.140625 23.960938 C 50.074219 24.035156 49.980469 24.066406 49.878906 24.074219 C 49.785156 24.066406 49.691406 24.035156 49.625 23.960938 C 49.558594 23.894531 49.519531 23.808594 49.519531 23.707031 L 49.519531 16.074219 L 47.648438 16.074219 C 47.601562 16.074219 47.554688 16.066406 47.507812 16.046875 C 47.464844 16.027344 47.425781 16 47.386719 15.964844 C 47.351562 15.933594 47.328125 15.894531 47.3125 15.847656 C 47.292969 15.808594 47.285156 15.761719 47.285156 15.707031 C 47.285156 15.527344 47.441406 15.347656 47.648438 15.347656 L 49.519531 15.347656 L 49.519531 12.546875 C 49.519531 12.375 49.640625 12.214844 49.8125 12.179688 C 50.054688 12.140625 50.246094 12.308594 50.246094 12.539062 L 50.246094 15.347656 Z M 64.058594 19.035156 L 64.058594 23.660156 C 64.058594 23.867188 63.878906 24.019531 63.699219 24.019531 C 63.652344 24.019531 63.605469 24.011719 63.558594 23.992188 C 63.511719 23.972656 63.472656 23.945312 63.441406 23.914062 C 63.40625 23.878906 63.378906 23.839844 63.359375 23.792969 C 63.347656 23.753906 63.332031 23.707031 63.332031 23.652344 L 63.332031 19.035156 C 63.332031 17.472656 62.453125 15.914062 60.714844 15.914062 C 58.480469 15.914062 57.519531 17.867188 57.648438 19.867188 C 57.648438 19.914062 57.671875 20.148438 57.671875 20.171875 L 57.671875 23.648438 C 57.671875 23.820312 57.554688 23.988281 57.378906 24.011719 C 57.140625 24.054688 56.945312 23.886719 56.945312 23.652344 L 56.945312 8.460938 C 56.945312 8.28125 57.101562 8.101562 57.3125 8.101562 C 57.519531 8.101562 57.671875 8.28125 57.671875 8.460938 L 57.671875 17.058594 C 58.300781 15.941406 59.414062 15.1875 60.714844 15.1875 C 62.839844 15.1875 64.058594 17.058594 64.058594 19.035156 Z M 76.292969 19.320312 C 76.140625 17.527344 74.765625 15.894531 72.867188 15.894531 C 70.972656 15.894531 69.621094 17.527344 69.441406 19.320312 Z M 77.074219 19.671875 C 77.074219 19.773438 77.035156 19.867188 76.960938 19.941406 C 76.894531 20.007812 76.800781 20.046875 76.699219 20.046875 L 69.441406 20.046875 C 69.621094 21.839844 70.972656 23.472656 72.867188 23.472656 C 74.167969 23.472656 75.125 22.980469 75.851562 21.941406 C 75.960938 21.800781 76.113281 21.707031 76.320312 21.792969 C 76.367188 21.8125 76.40625 21.847656 76.441406 21.878906 C 76.472656 21.921875 76.5 21.964844 76.511719 22.011719 C 76.527344 22.058594 76.535156 22.113281 76.527344 22.160156 C 76.519531 22.214844 76.507812 22.261719 76.480469 22.308594 C 75.753906 23.578125 74.292969 24.199219 72.867188 24.199219 C 70.425781 24.199219 68.6875 22.019531 68.6875 19.679688 C 68.6875 17.347656 70.425781 15.160156 72.867188 15.160156 C 75.308594 15.160156 77.074219 17.339844 77.074219 19.671875 Z M 85.988281 15.679688 C 85.988281 15.914062 85.851562 16.046875 85.648438 16.074219 C 83.511719 16.386719 82.554688 18.125 82.554688 20.148438 L 82.554688 23.621094 C 82.554688 23.800781 82.433594 23.960938 82.261719 23.988281 C 82.019531 24.027344 81.828125 23.859375 81.828125 23.625 L 81.828125 15.71875 C 81.828125 15.539062 81.945312 15.378906 82.121094 15.351562 C 82.367188 15.3125 82.554688 15.480469 82.554688 15.707031 L 82.554688 17.320312 C 83.152344 16.308594 84.347656 15.347656 85.59375 15.347656 C 85.773438 15.347656 85.988281 15.472656 85.988281 15.679688 Z M 97.125 19.320312 C 96.964844 17.527344 95.59375 15.894531 93.699219 15.894531 C 91.800781 15.894531 90.445312 17.527344 90.265625 19.320312 Z M 97.90625 19.671875 C 97.898438 19.773438 97.859375 19.867188 97.792969 19.941406 C 97.71875 20.007812 97.625 20.046875 97.527344 20.046875 L 90.265625 20.046875 C 90.445312 21.839844 91.800781 23.472656 93.699219 23.472656 C 94.992188 23.472656 95.953125 22.980469 96.6875 21.941406 C 96.785156 21.800781 96.945312 21.707031 97.148438 21.792969 C 97.199219 21.8125 97.246094 21.851562 97.28125 21.898438 C 97.320312 21.941406 97.339844 22 97.351562 22.054688 C 97.367188 22.140625 97.351562 22.234375 97.308594 22.308594 C 96.578125 23.578125 95.125 24.199219 93.699219 24.199219 C 91.253906 24.199219 89.511719 22.019531 89.511719 19.679688 C 89.511719 17.347656 91.253906 15.160156 93.699219 15.160156 C 96.132812 15.160156 97.898438 17.339844 97.90625 19.671875 Z M 109.621094 15.773438 L 109.621094 23.707031 C 109.621094 23.914062 109.433594 24.074219 109.253906 24.074219 C 109.207031 24.074219 109.160156 24.066406 109.113281 24.046875 C 109.066406 24.027344 109.027344 24 108.992188 23.964844 C 108.960938 23.933594 108.933594 23.894531 108.914062 23.847656 C 108.898438 23.808594 108.886719 23.753906 108.886719 23.707031 L 108.886719 22.199219 C 108.292969 23.394531 107.226562 24.253906 105.878906 24.253906 C 103.71875 24.253906 102.527344 22.378906 102.527344 20.40625 L 102.527344 15.761719 C 102.527344 15.578125 102.679688 15.394531 102.894531 15.394531 C 103.101562 15.394531 103.253906 15.578125 103.253906 15.761719 L 103.253906 20.40625 C 103.253906 21.964844 104.140625 23.527344 105.878906 23.527344 C 108.320312 23.527344 108.886719 21.238281 108.886719 18.71875 L 108.886719 15.761719 C 108.894531 15.707031 108.90625 15.648438 108.925781 15.601562 C 108.953125 15.546875 108.992188 15.507812 109.039062 15.472656 C 109.085938 15.441406 109.132812 15.414062 109.191406 15.40625 C 109.246094 15.394531 109.308594 15.394531 109.359375 15.414062 C 109.433594 15.433594 109.5 15.488281 109.546875 15.554688 C 109.59375 15.613281 109.621094 15.691406 109.621094 15.773438 Z M 127.980469 19.007812 L 127.980469 23.652344 C 127.980469 23.867188 127.800781 24.019531 127.613281 24.019531 C 127.566406 24.019531 127.519531 24.011719 127.472656 23.992188 C 127.433594 23.972656 127.386719 23.945312 127.351562 23.914062 C 127.320312 23.878906 127.292969 23.839844 127.28125 23.792969 C 127.261719 23.753906 127.253906 23.707031 127.253906 23.652344 L 127.253906 19.007812 C 127.253906 17.445312 126.367188 15.914062 124.625 15.914062 C 122.445312 15.914062 121.613281 18.253906 121.613281 20.074219 L 121.613281 23.652344 C 121.613281 23.867188 121.433594 24.019531 121.253906 24.019531 C 121.207031 24.019531 121.152344 24.011719 121.113281 23.992188 C 121.066406 23.972656 121.027344 23.945312 120.992188 23.914062 C 120.960938 23.878906 120.933594 23.839844 120.914062 23.792969 C 120.894531 23.753906 120.886719 23.707031 120.886719 23.652344 L 120.886719 19.007812 C 120.886719 17.445312 120.007812 15.914062 118.265625 15.914062 C 116.058594 15.914062 115.148438 17.660156 115.226562 19.964844 C 115.226562 20.019531 115.253906 20.125 115.226562 20.148438 L 115.226562 23.648438 C 115.226562 23.820312 115.105469 23.988281 114.933594 24.011719 C 114.691406 24.054688 114.5 23.886719 114.5 23.652344 L 114.5 15.71875 C 114.5 15.539062 114.621094 15.378906 114.792969 15.351562 C 115.035156 15.3125 115.226562 15.480469 115.226562 15.707031 L 115.226562 17.035156 C 115.851562 15.914062 116.964844 15.1875 118.265625 15.1875 C 119.746094 15.1875 120.886719 16.125 121.351562 17.5 C 121.953125 16.152344 123.121094 15.1875 124.625 15.1875 C 126.761719 15.1875 127.980469 17.035156 127.980469 19.007812 Z M 127.980469 19.007812 "/>
</g>
</g>
<g clip-path="url(#clip3)" clip-rule="nonzero">
<g clip-path="url(#clip4)" clip-rule="nonzero">
<path style=" stroke:none;fill-rule:evenodd;fill:rgb(100%,100%,100%);fill-opacity:0.501961;" d="M 0.261719 20.445312 L 12.386719 27.621094 L 12.386719 0.328125 Z M 0.261719 20.445312 "/>
</g>
</g>
<g clip-path="url(#clip5)" clip-rule="nonzero">
<g clip-path="url(#clip6)" clip-rule="nonzero">
<path style=" stroke:none;fill-rule:evenodd;fill:rgb(100%,100%,100%);fill-opacity:0.501961;" d="M 12.386719 0.328125 L 12.386719 27.621094 L 24.511719 20.445312 Z M 12.386719 0.328125 "/>
</g>
</g>
<g clip-path="url(#clip7)" clip-rule="nonzero">
<g clip-path="url(#clip8)" clip-rule="nonzero">
<path style=" stroke:none;fill-rule:evenodd;fill:rgb(100%,100%,100%);fill-opacity:0.501961;" d="M 12.386719 14.933594 L 0.261719 20.445312 L 12.386719 27.621094 L 24.511719 20.445312 Z M 12.386719 14.933594 "/>
</g>
</g>
<g clip-path="url(#clip9)" clip-rule="nonzero">
<g clip-path="url(#clip10)" clip-rule="nonzero">
<path style=" stroke:none;fill-rule:evenodd;fill:rgb(100%,100%,100%);fill-opacity:0.501961;" d="M 12.386719 14.933594 L 0.261719 20.445312 L 12.386719 27.621094 Z M 12.386719 14.933594 "/>
</g>
</g>
<g clip-path="url(#clip11)" clip-rule="nonzero">
<g clip-path="url(#clip12)" clip-rule="nonzero">
<path style=" stroke:none;fill-rule:evenodd;fill:rgb(100%,100%,100%);fill-opacity:0.501961;" d="M 0.261719 22.746094 L 12.386719 39.839844 L 12.386719 29.914062 Z M 0.261719 22.746094 "/>
</g>
</g>
<g clip-path="url(#clip13)" clip-rule="nonzero">
<g clip-path="url(#clip14)" clip-rule="nonzero">
<path style=" stroke:none;fill-rule:evenodd;fill:rgb(100%,100%,100%);fill-opacity:0.501961;" d="M 12.386719 29.914062 L 12.386719 39.839844 L 24.519531 22.746094 Z M 12.386719 29.914062 "/>
</g>
</g>
</g>
</svg>
