<svg width="129.901001" height="25.125000" viewBox="0 0 129.901 25.125" fill="none" xmlns="http://www.w3.org/2000/svg" xmlns:xlink="http://www.w3.org/1999/xlink">
	<desc>
			Created with Pixso.
	</desc>
	<defs>
		<linearGradient x1="124.193375" y1="0.949944" x2="98.508972" y2="18.499943" id="paint_linear_57_53_0" gradientUnits="userSpaceOnUse">
			<stop stop-color="#B75CFF"/>
			<stop offset="1.000000" stop-color="#671AE4"/>
		</linearGradient>
	</defs>
	<path d="M69.04 4.39Q70.62 4.39 71.79 5.09Q72.4 5.45 72.89 6C73.86 7.05 74.34 8.5 74.34 10.35L74.34 18.5L70.09 18.5L70.09 10.92C70.09 9.99 69.85 9.26 69.37 8.75C68.89 8.23 68.24 7.97 67.42 7.97C66.6 7.97 65.95 8.23 65.47 8.75C64.99 9.26 64.74 9.99 64.74 10.92L64.74 18.5L60.47 18.5L60.47 0L64.74 0L64.74 6.42Q64.81 6.32 64.88 6.23L64.88 6.23Q65.51 5.44 66.52 4.94Q67.64 4.39 69.04 4.39ZM13.37 6.6Q13.37 7.65 13.04 8.58L13.04 8.58Q12.89 9 12.67 9.39C12.2 10.23 11.49 10.9 10.52 11.42Q9.07 12.2 6.92 12.2L4.27 12.2L4.27 18.5L0 18.5L0 0.94L6.92 0.94Q9.02 0.94 10.47 1.67C11.44 2.15 12.16 2.82 12.65 3.67Q12.7 3.76 12.74 3.85L12.74 3.85L12.74 3.85L12.74 3.85L12.74 3.85Q13.37 5.06 13.37 6.6ZM18.02 18.07C18.97 18.49 20.05 18.7 21.27 18.7Q22.97 18.7 24.25 18.14Q25.55 17.6 26.22 16.64Q26.53 16.21 26.71 15.73L26.71 15.73L26.71 15.73Q26.92 15.12 26.92 14.45C26.9 13.48 26.65 12.71 26.15 12.14C25.66 11.56 25.1 11.14 24.45 10.89C23.8 10.63 22.95 10.36 21.92 10.1C21.02 9.89 20.35 9.69 19.92 9.5C19.5 9.3 19.3 9 19.3 8.6Q19.3 8.33 19.41 8.13L19.41 8.13Q19.51 7.95 19.7 7.82C19.96 7.62 20.35 7.52 20.85 7.52C21.43 7.52 21.9 7.66 22.25 7.94C22.61 8.23 22.83 8.61 22.9 9.1L26.85 9.1Q26.7 7.73 26.03 6.7Q25.65 6.12 25.1 5.64L25.09 5.64Q23.59 4.35 20.97 4.35C19.79 4.35 18.76 4.54 17.9 4.92Q16.67 5.47 16 6.42L16 6.42Q15.97 6.46 15.95 6.5Q15.67 6.91 15.51 7.37L15.51 7.37L15.51 7.37Q15.3 7.99 15.3 8.67Q15.3 10.03 15.96 10.87Q15.99 10.91 16.02 10.95C16.5 11.5 17.08 11.9 17.75 12.17Q18.75 12.55 20.25 12.89C21.18 13.13 21.85 13.35 22.27 13.55Q22.65 13.71 22.8 14L22.8 14Q22.9 14.18 22.9 14.42C22.9 14.75 22.75 15.03 22.45 15.25C22.16 15.45 21.75 15.55 21.22 15.55C20.64 15.55 20.15 15.39 19.75 15.1C19.35 14.8 19.12 14.4 19.07 13.92L14.85 13.92C14.91 14.82 15.22 15.64 15.77 16.37Q16.6 17.45 18.02 18.07ZM45.36 7.72C44.77 8.8 44.48 10.07 44.48 11.52C44.48 12.97 44.77 14.24 45.36 15.32C45.96 16.4 46.78 17.24 47.83 17.82Q47.91 17.86 47.98 17.9Q49.53 18.7 51.48 18.7C53.22 18.7 54.67 18.23 55.86 17.29C57.04 16.36 57.82 15.08 58.18 13.45L53.63 13.45C53.25 14.51 52.51 15.05 51.41 15.05Q50.77 15.05 50.28 14.78Q49.85 14.56 49.53 14.14Q48.83 13.22 48.83 11.52Q48.83 9.82 49.53 8.92Q49.87 8.47 50.32 8.24Q50.8 8 51.41 8C52.51 8 53.25 8.53 53.63 9.6L58.18 9.6C57.82 7.93 57.04 6.64 55.86 5.72Q55.62 5.53 55.37 5.37Q53.75 4.35 51.48 4.35Q49.53 4.35 47.98 5.14L47.98 5.14Q47.91 5.18 47.83 5.22C46.78 5.8 45.96 6.64 45.36 7.72ZM79.96 17.82C81.06 18.4 82.3 18.7 83.66 18.7C85.03 18.7 86.26 18.4 87.36 17.82C88.48 17.24 89.36 16.4 89.99 15.32C90.64 14.22 90.96 12.95 90.96 11.52C90.96 10.09 90.65 8.83 90.01 7.75C89.38 6.64 88.51 5.8 87.41 5.22C86.31 4.64 85.08 4.35 83.71 4.35C82.35 4.35 81.11 4.64 80.01 5.22C78.91 5.8 78.05 6.64 77.41 7.75C76.78 8.83 76.46 10.09 76.46 11.52Q76.46 13.7 77.39 15.32C78.02 16.4 78.88 17.24 79.96 17.82ZM6.59 8.8Q7.82 8.8 8.42 8.22Q8.51 8.13 8.58 8.04L8.58 8.04L8.58 8.04Q9.02 7.49 9.02 6.6Q9.02 5.7 8.58 5.15L8.58 5.15L8.58 5.15L8.58 5.15Q8.51 5.06 8.42 4.97Q7.82 4.39 6.59 4.39L4.27 4.39L4.27 8.8L6.59 8.8ZM43.79 4.55L35.04 25.12L30.44 25.12L33.64 18.02L27.96 4.55L32.74 4.55L35.96 13.27L39.16 4.55L43.79 4.55ZM85.74 14.1C85.17 14.7 84.48 15 83.66 15Q83.05 15 82.53 14.77Q82.02 14.54 81.61 14.1C81.08 13.5 80.81 12.64 80.81 11.52C80.81 10.39 81.09 9.53 81.64 8.94C82.19 8.35 82.88 8.05 83.71 8.05Q84.33 8.05 84.85 8.27Q85.36 8.5 85.76 8.94Q85.78 8.96 85.8 8.98Q86.61 9.88 86.61 11.52C86.61 12.64 86.32 13.5 85.74 14.1Z" fill="#FFFFFF" fill-opacity="1.000000" fill-rule="evenodd"/>
	<path d="M97.37 15.39L96.32 18.5L91.85 18.5L98.2 0.94L103.15 0.94L109.5 18.5L104.97 18.5L103.92 15.39L97.37 15.39ZM129.9 18.5L129.9 14.87L128.37 14.87C127.9 14.87 127.57 14.78 127.37 14.59C127.17 14.41 127.07 14.11 127.07 13.7L127.07 8.09L129.87 8.09L129.87 4.55L127.07 4.55L127.07 1.14L122.8 1.14L122.8 4.55L121.1 4.55L121.1 8.09L122.8 8.09L122.8 13.64Q122.8 16.18 124.06 17.34Q124.08 17.35 124.1 17.37C124.96 18.12 126.17 18.5 127.72 18.5L129.9 18.5ZM115.7 6.87Q116.27 6.01 117.04 5.42L117.04 5.42Q117.3 5.23 117.58 5.07Q117.96 4.84 118.36 4.69Q119.17 4.39 120.08 4.39L120.08 8.92L118.9 8.92C117.84 8.92 117.04 9.15 116.5 9.62Q115.7 10.3 115.7 12.02L115.7 18.5L111.43 18.5L111.43 4.55L115.7 4.55L115.7 6.87ZM102.82 12.09L100.65 5.67L98.5 12.09L102.82 12.09Z" fill="url(#paint_linear_57_53_0)" fill-opacity="1.000000" fill-rule="evenodd"/>
</svg>
